<?xml version="1.0" encoding="UTF-8"?>
<svg version="1.1" xmlns="http://www.w3.org/2000/svg" width="2813" height="1875">
<path d="M0 0 C928.29 0 1856.58 0 2813 0 C2813 618.75 2813 1237.5 2813 1875 C1884.71 1875 956.42 1875 0 1875 C0 1256.25 0 637.5 0 0 Z " fill="#D6141B" transform="translate(0,0)"/>
<path d="M0 0 C927.96 0 1855.92 0 2812 0 C2812 309.54 2812 619.08 2812 938 C2458.74295555 938.32321181 2458.74295555 938.32321181 2323.86287415 938.38531971 C2321.96941428 938.38619471 2320.07595441 938.38707008 2318.18249454 938.38794577 C2317.2330956 938.38838478 2316.28369666 938.38882379 2315.30552806 938.3892761 C2281.76310468 938.40480857 2248.22068158 938.42086369 2214.67825889 938.43783405 C2211.47677571 938.4394492 2208.27529252 938.44105063 2205.07380933 938.44264871 C2156.04488121 938.46717368 2107.01596903 938.49839108 2057.98706055 938.54931641 C2056.40526245 938.55095919 2056.40526245 938.55095919 2054.79150884 938.55263516 C2037.78908682 938.57033436 2020.78666541 938.58860315 2003.78424408 938.60694752 C1954.81822781 938.6597696 1905.85222374 938.70838715 1856.88618183 938.72911835 C1855.37608719 938.72976077 1855.37608719 938.72976077 1853.83548558 938.73041617 C1831.73649595 938.7397418 1809.63750617 938.74690085 1787.53851517 938.75200786 C1778.64692115 938.75410087 1769.75532721 938.75650583 1760.86373329 938.75901794 C1759.89058091 938.75928536 1758.91742853 938.75955278 1757.91478668 938.7598283 C1726.54825582 938.7686029 1695.18181562 938.80278172 1663.81532137 938.85025767 C1632.22424962 938.89795742 1600.63326589 938.92079904 1569.04215721 938.9089919 C1564.67844336 938.90736722 1560.31472947 938.90602817 1555.95101547 938.90486145 C1555.09558925 938.90462241 1554.24016303 938.90438336 1553.3588148 938.90413707 C1539.80336218 938.90108963 1526.24809556 938.92498703 1512.69269364 938.9600789 C1499.3694037 938.99401775 1486.04635526 938.99953549 1472.72304252 938.97465451 C1464.90798042 938.96092159 1457.09368341 938.96916564 1449.27871032 939.00973601 C1443.48145113 939.0373955 1437.68489329 939.02344931 1431.88767495 938.99311981 C1429.55348082 938.9873919 1427.21920587 938.99516572 1424.88511525 939.01788196 C1403.48160546 939.21303036 1403.48160546 939.21303036 1394 930 C1392.21285916 928.79484649 1390.40216951 927.62333585 1388.5625 926.5 C1382.6287148 922.78295558 1376.81516026 918.89922586 1371 915 C1369.00040013 913.66606667 1367.00040115 912.33273141 1365 911 C1139.63671875 760.7578125 1139.63671875 760.7578125 1136.95581055 758.97045898 C1134.80633149 757.53753213 1132.65675087 756.10475829 1130.50708008 754.67211914 C1124.88521699 750.92518195 1119.26388624 747.17747221 1113.6471405 743.42286682 C1100.98343206 734.95797168 1088.31027182 726.50829363 1075.58203125 718.140625 C1074.24719444 717.2630529 1074.24719444 717.2630529 1072.88539124 716.36775208 C1071.05856286 715.16683487 1069.23172459 713.96593271 1067.40487671 712.76504517 C1050.8023227 701.85020235 1034.27878695 690.82793595 1017.82550049 679.68942261 C1004.28291892 670.52437985 990.66883951 661.47554082 977 652.5 C961.52993517 642.3416981 946.14806359 632.06275981 930.82275391 621.6875 C917.28108245 612.52310903 903.66790396 603.4749265 890 594.5 C874.52993517 584.3416981 859.14806359 574.06275981 843.82275391 563.6875 C830.28108245 554.52310903 816.66790396 545.4749265 803 536.5 C787.52993517 526.3416981 772.14806359 516.06275981 756.82275391 505.6875 C743.28108245 496.52310903 729.66790396 487.4749265 716 478.5 C700.52993517 468.3416981 685.14806359 458.06275981 669.82275391 447.6875 C656.28108245 438.52310903 642.66790396 429.4749265 629 420.5 C613.52993517 410.3416981 598.14806359 400.06275981 582.82275391 389.6875 C569.28108245 380.52310903 555.66790396 371.4749265 542 362.5 C526.52993517 352.3416981 511.14806359 342.06275981 495.82275391 331.6875 C482.28108245 322.52310903 468.66790396 313.4749265 455 304.5 C439.52993517 294.3416981 424.14806359 284.06275981 408.82275391 273.6875 C395.28108245 264.52310903 381.66790396 255.4749265 368 246.5 C352.52993517 236.3416981 337.14806359 226.06275981 321.82275391 215.6875 C308.28108245 206.52310903 294.66790396 197.4749265 281 188.5 C265.52993517 178.3416981 250.14806359 168.06275981 234.82275391 157.6875 C221.28108245 148.52310903 207.66790396 139.4749265 194 130.5 C178.52993517 120.3416981 163.14806359 110.06275981 147.82275391 99.6875 C134.28107764 90.52310578 120.66771093 81.4752259 107 72.5 C90.61782935 61.74089678 74.32920749 50.8521848 58.09838867 39.86621094 C48.74448688 33.53709026 39.37246659 27.23734932 29.96484375 20.98828125 C28.982276 20.33528549 27.99970825 19.68228973 26.98736572 19.00950623 C22.24323746 15.85762694 17.49633098 12.71004132 12.74560547 9.56811523 C11.0555901 8.44656327 9.3656447 7.32490585 7.67578125 6.203125 C6.50268654 5.43038994 6.50268654 5.43038994 5.30589294 4.64204407 C3.519644 3.45410386 1.75677551 2.23110805 0 1 C0 0.67 0 0.34 0 0 Z " fill="#FEFEFE" transform="translate(1,0)"/>
<path d="M0 0 C6.75688974 4.29983893 13.49834836 8.60604519 20.1875 13.0078125 C21.03098999 13.56230072 21.87447998 14.11678894 22.74353027 14.68807983 C25.49658282 16.4990297 28.24844666 18.31177315 31 20.125 C31.95962646 20.75704346 32.91925293 21.38908691 33.90795898 22.0402832 C49.0641786 32.02753932 64.1379323 42.13128734 79.16845703 52.30645752 C92.71305086 61.47287926 106.32912132 70.52312017 120 79.5 C135.47006483 89.6583019 150.85193641 99.93724019 166.17724609 110.3125 C179.71891755 119.47689097 193.33209604 128.5250735 207 137.5 C222.47006483 147.6583019 237.85193641 157.93724019 253.17724609 168.3125 C266.71891755 177.47689097 280.33209604 186.5250735 294 195.5 C309.47006483 205.6583019 324.85193641 215.93724019 340.17724609 226.3125 C353.71891755 235.47689097 367.33209604 244.5250735 381 253.5 C396.47006483 263.6583019 411.85193641 273.93724019 427.17724609 284.3125 C440.71891755 293.47689097 454.33209604 302.5250735 468 311.5 C483.47006483 321.6583019 498.85193641 331.93724019 514.17724609 342.3125 C527.71891755 351.47689097 541.33209604 360.5250735 555 369.5 C570.47006483 379.6583019 585.85193641 389.93724019 601.17724609 400.3125 C614.71891755 409.47689097 628.33209604 418.5250735 642 427.5 C657.47006483 437.6583019 672.85193641 447.93724019 688.17724609 458.3125 C701.71891755 467.47689097 715.33209604 476.5250735 729 485.5 C744.47006483 495.6583019 759.85193641 505.93724019 775.17724609 516.3125 C788.71891755 525.47689097 802.33209604 534.5250735 816 543.5 C831.47006483 553.6583019 846.85193641 563.93724019 862.17724609 574.3125 C875.71891755 583.47689097 889.33209604 592.5250735 903 601.5 C918.47006483 611.6583019 933.85193641 621.93724019 949.17724609 632.3125 C962.71891755 641.47689097 976.33209604 650.5250735 990 659.5 C1004.56899604 669.06662184 1019.06723506 678.72905971 1033.5 688.5 C1052.86752081 701.61151975 1072.37441595 714.50385699 1091.92376709 727.34225464 C1099.30581488 732.19345485 1106.65713882 737.08976698 1114 742 C1116.24952067 743.50072026 1118.49976069 745.00035716 1120.75 746.5 C1201.5 800.33333333 1282.25 854.16666667 1380.9921875 919.99609375 C1383.01663259 921.34484742 1385.04270708 922.69115825 1387.0703125 924.03515625 C1393.44589742 928.26652271 1399.7546751 932.57853104 1406 937 C1401.3145597 941.81931002 1397.28668991 945.57105163 1391 948 C1385.21307443 950.79905037 1380.58546811 954.09459769 1375.84765625 958.41796875 C1371.99896331 961.71336122 1369.03550787 963 1364 963 C1363.63455078 963.87591797 1363.63455078 963.87591797 1363.26171875 964.76953125 C1360.92125348 968.9070101 1356.99852305 971.54339107 1353 974 C1350.67810464 974.4054103 1348.34484656 974.76072994 1346 975 C1344.87483915 976.83284443 1344.87483915 976.83284443 1344 979 C1341.28726866 980.98933632 1338.51728457 982.70476929 1335.59765625 984.37109375 C1332.91560578 986.05292089 1330.64501707 987.93371076 1328.25 990 C1323.74764506 993.67759923 1319.64184479 995.69174614 1314 997 C1314 997.66 1314 998.32 1314 999 C1309.0148797 1003.89468728 1304.99514851 1006.28620934 1298 1007 C1296.87483915 1008.83284443 1296.87483915 1008.83284443 1296 1011 C1293.28726866 1012.98933632 1290.51728457 1014.70476929 1287.59765625 1016.37109375 C1284.91560578 1018.05292089 1282.64501707 1019.93371076 1280.25 1022 C1275.74764506 1025.67759923 1271.64184479 1027.69174614 1266 1029 C1266 1029.66 1266 1030.32 1266 1031 C1261.0148797 1035.89468728 1256.99514851 1038.28620934 1250 1039 C1248.87483915 1040.83284443 1248.87483915 1040.83284443 1248 1043 C1245.21687564 1045.04095786 1242.36959448 1046.78880316 1239.375 1048.5 C1236.89646432 1049.935612 1236.89646432 1049.935612 1234.875 1052.1875 C1233 1054 1233 1054 1230 1054 C1230 1054.66 1230 1055.32 1230 1056 C1228.37750059 1056.83819158 1226.75191503 1057.6704116 1225.125 1058.5 C1224.22007813 1058.9640625 1223.31515625 1059.428125 1222.3828125 1059.90625 C1220 1061 1220 1061 1218 1061 C1218 1061.66 1218 1062.32 1218 1063 C1215.8828125 1064.5078125 1215.8828125 1064.5078125 1213.125 1066.125 C1212.22007813 1066.66382813 1211.31515625 1067.20265625 1210.3828125 1067.7578125 C1208 1069 1208 1069 1206 1069 C1206 1069.66 1206 1070.32 1206 1071 C1201.89424065 1074.3673718 1197.45108312 1077.2881479 1192.6875 1079.625 C1189.79184394 1080.93274958 1189.79184394 1080.93274958 1187.3125 1083.6875 C1186.549375 1084.450625 1185.78625 1085.21375 1185 1086 C1184.01 1086 1183.02 1086 1182 1086 C1182 1086.66 1182 1087.32 1182 1088 C1180.37750059 1088.83819158 1178.75191503 1089.6704116 1177.125 1090.5 C1176.22007813 1090.9640625 1175.31515625 1091.428125 1174.3828125 1091.90625 C1172 1093 1172 1093 1170 1093 C1170 1093.66 1170 1094.32 1170 1095 C1167.8828125 1096.5078125 1167.8828125 1096.5078125 1165.125 1098.125 C1164.22007813 1098.66382813 1163.31515625 1099.20265625 1162.3828125 1099.7578125 C1160 1101 1160 1101 1158 1101 C1158 1101.66 1158 1102.32 1158 1103 C1156.0234375 1104.69140625 1156.0234375 1104.69140625 1153.375 1106.5625 C1152.51648437 1107.18253906 1151.65796875 1107.80257813 1150.7734375 1108.44140625 C1147.7842548 1110.12124273 1145.3589061 1110.49953261 1142 1111 C1141.3162955 1112.32467746 1140.65035814 1113.65863633 1140 1115 C1136.875 1116.25 1136.875 1116.25 1134 1117 C1134 1117.66 1134 1118.32 1134 1119 C1133.01 1119.33 1132.02 1119.66 1131 1120 C1130.3503125 1120.7115625 1130.3503125 1120.7115625 1129.6875 1121.4375 C1127.38984098 1123.56496206 1124.97249204 1124.14128008 1122 1125 C1122 1125.66 1122 1126.32 1122 1127 C1106.38852097 1140 1106.38852097 1140 1101 1140 C1101 1140.66 1101 1141.32 1101 1142 C1100.13375 1142.391875 1099.2675 1142.78375 1098.375 1143.1875 C1094.91985063 1144.89035394 1094.91985063 1144.89035394 1092.0625 1147.5 C1088.81950541 1150.14734252 1085.85307888 1151.41748546 1082 1153 C1079.99419671 1154.32458708 1077.99284138 1155.6559907 1076 1157 C1075.34 1157 1074.68 1157 1074 1157 C1074 1157.66 1074 1158.32 1074 1159 C1058.38852097 1172 1058.38852097 1172 1053 1172 C1053 1172.66 1053 1173.32 1053 1174 C1052.13375 1174.391875 1051.2675 1174.78375 1050.375 1175.1875 C1047.73551335 1176.60500209 1045.99882018 1177.75871628 1043.8125 1179.6875 C1041 1182 1041 1182 1038 1182 C1038 1182.66 1038 1183.32 1038 1184 C1037.2265625 1184.35191406 1036.453125 1184.70382812 1035.65625 1185.06640625 C1029.58168863 1187.94580848 1024.69533585 1190.84885492 1019.8125 1195.45703125 C1016.32932642 1198.4222329 1012.29725722 1199.56758093 1008 1201 C1008 1201.66 1008 1202.32 1008 1203 C1006.68 1203 1005.36 1203 1004 1203 C1004 1203.66 1004 1204.32 1004 1205 C1003.01 1205 1002.02 1205 1001 1205 C1001 1205.66 1001 1206.32 1001 1207 C1000.01 1207 999.02 1207 998 1207 C997.731875 1207.598125 997.46375 1208.19625 997.1875 1208.8125 C995.99012525 1211.01819033 994.95521016 1212.43583187 993 1214 C992.01 1214 991.02 1214 990 1214 C990 1214.66 990 1215.32 990 1216 C989.2265625 1216.35191406 988.453125 1216.70382812 987.65625 1217.06640625 C981.58168863 1219.94580848 976.69533585 1222.84885492 971.8125 1227.45703125 C968.32932642 1230.4222329 964.29725722 1231.56758093 960 1233 C960 1233.66 960 1234.32 960 1235 C958.68 1235 957.36 1235 956 1235 C956 1235.66 956 1236.32 956 1237 C955.01 1237 954.02 1237 953 1237 C953 1237.66 953 1238.32 953 1239 C952.01 1239 951.02 1239 950 1239 C949.731875 1239.598125 949.46375 1240.19625 949.1875 1240.8125 C947.99012525 1243.01819033 946.95521016 1244.43583187 945 1246 C944.01 1246 943.02 1246 942 1246 C942 1246.66 942 1247.32 942 1248 C940.1532751 1249.16275272 938.30118122 1250.3176808 936.42578125 1251.43359375 C932.84444843 1253.74617742 929.64740702 1256.48207775 926.39453125 1259.23046875 C924 1261 924 1261 921.578125 1261.94921875 C917.0944819 1263.77664298 913.59650029 1267.09813218 909.83984375 1270.1015625 C907 1272 907 1272 903 1272 C903 1272.66 903 1273.32 903 1274 C900.09432866 1276.01782732 897.48330216 1277.35494404 894 1278 C894 1278.66 894 1279.32 894 1280 C892.1532751 1281.16275272 890.30118122 1282.3176808 888.42578125 1283.43359375 C884.84444843 1285.74617742 881.64740702 1288.48207775 878.39453125 1291.23046875 C876 1293 876 1293 873.578125 1293.94921875 C869.0944819 1295.77664298 865.59650029 1299.09813218 861.83984375 1302.1015625 C859 1304 859 1304 855 1304 C855 1304.66 855 1305.32 855 1306 C852.09432866 1308.01782732 849.48330216 1309.35494404 846 1310 C846 1310.66 846 1311.32 846 1312 C843.36294481 1313.74145154 840.70984171 1315.37836244 838 1317 C830.31249182 1321.75836294 830.31249182 1321.75836294 823 1327.0625 C819.13953646 1330.0448663 814.9825563 1332.21873589 810.67578125 1334.48828125 C807.52476075 1336.26849283 804.74918202 1338.32145377 801.94921875 1340.60546875 C800 1342 800 1342 797.08984375 1343.40625 C793.88463902 1345.05950351 791.56877723 1346.92764218 788.875 1349.3125 C784.06522028 1353.36457469 779.25253039 1356.13636133 773.53125 1358.7109375 C771.13329089 1359.93212038 769.83846947 1361.09776859 768 1363 C766.96875 1363.33 765.9375 1363.66 764.875 1364 C763.92625 1364.33 762.9775 1364.66 762 1365 C761.67 1365.99 761.34 1366.98 761 1368 C758.671875 1369.71875 758.671875 1369.71875 755.75 1371.5 C754.79609375 1372.0878125 753.8421875 1372.675625 752.859375 1373.28125 C751.05794575 1374.36407632 749.2477753 1375.43261481 747.42578125 1376.48046875 C744.88193981 1378.07395397 742.71440847 1379.85921304 740.4375 1381.8125 C735.79138675 1385.60752344 731.01305628 1388.19744897 725.56640625 1390.67578125 C723.15912314 1391.91789537 721.84491868 1393.08043143 720 1395 C716.8125 1396.1875 716.8125 1396.1875 714 1397 C714 1397.66 714 1398.32 714 1399 C712.1563971 1400.38490744 710.24777736 1401.68388849 708.3125 1402.9375 C706.72888672 1403.97197266 706.72888672 1403.97197266 705.11328125 1405.02734375 C703.22620317 1406.22304567 701.32240353 1407.393574 699.390625 1408.515625 C696.853244 1410.09112301 694.70307001 1411.86893994 692.4375 1413.8125 C687.79138675 1417.60752344 683.01305628 1420.19744897 677.56640625 1422.67578125 C675.15912314 1423.91789537 673.84491868 1425.08043143 672 1427 C668.8125 1428.1875 668.8125 1428.1875 666 1429 C666 1429.66 666 1430.32 666 1431 C664.1015625 1432.40234375 664.1015625 1432.40234375 661.625 1433.9375 C658.51789754 1435.86587629 657.06851285 1436.89723073 655 1440 C651.48748362 1442.37611402 647.70087383 1444.14745191 643.8671875 1445.9375 C641.95938674 1446.90407681 641.95938674 1446.90407681 640.6328125 1448.4375 C637.60545546 1451.33449238 633.5699097 1452.7318072 629.8125 1454.5 C627.30525759 1455.83719595 625.91989275 1456.98949285 624 1459 C620.8125 1460.1875 620.8125 1460.1875 618 1461 C618 1461.66 618 1462.32 618 1463 C616.1015625 1464.40234375 616.1015625 1464.40234375 613.625 1465.9375 C610.51789754 1467.86587629 609.06851285 1468.89723073 607 1472 C603.48748362 1474.37611402 599.70087383 1476.14745191 595.8671875 1477.9375 C593.95779978 1478.90559351 593.95779978 1478.90559351 592.62109375 1480.4453125 C590.40363486 1482.57193573 587.96671201 1483.58153026 585.1875 1484.875 C580.44881468 1487.18446758 576.84537144 1489.42929794 573 1493 C569.93310435 1495.67537705 566.99231765 1498.09273091 563.4375 1500.0625 C560.04870012 1501.85116832 560.04870012 1501.85116832 557.5 1504 C554.99754785 1506.00196172 552.48872227 1507.4575908 549.69140625 1508.9921875 C547.77596216 1510.07452924 547.77596216 1510.07452924 545.4375 1512.125 C542.72270382 1514.21330475 540.27944023 1515.08480738 537 1516 C537 1516.66 537 1517.32 537 1518 C534.8203125 1519.4375 534.8203125 1519.4375 532 1521 C530.29034198 1521.99773355 528.5819996 1522.99772501 526.875 1524 C526.02679687 1524.495 525.17859375 1524.99 524.3046875 1525.5 C522.02839732 1526.85695229 522.02839732 1526.85695229 520.5703125 1528.4921875 C518.32516552 1530.6479754 515.78903381 1531.76466243 513 1533.125 C511.948125 1533.64320312 510.89625 1534.16140625 509.8125 1534.6953125 C507 1536 507 1536 504 1537 C503.67 1537.99 503.34 1538.98 503 1540 C502.34 1540 501.68 1540 501 1540 C501 1540.66 501 1541.32 501 1542 C500.01 1542 499.02 1542 498 1542 C498 1542.66 498 1543.32 498 1544 C491.25 1548 491.25 1548 489 1548 C489 1548.66 489 1549.32 489 1550 C486.8203125 1551.4375 486.8203125 1551.4375 484 1553 C482.29034198 1553.99773355 480.5819996 1554.99772501 478.875 1556 C478.02679688 1556.495 477.17859375 1556.99 476.3046875 1557.5 C474.02839732 1558.85695229 474.02839732 1558.85695229 472.5703125 1560.4921875 C470.32516552 1562.6479754 467.78903381 1563.76466243 465 1565.125 C463.948125 1565.64320312 462.89625 1566.16140625 461.8125 1566.6953125 C459 1568 459 1568 456 1569 C455.67 1569.99 455.34 1570.98 455 1572 C454.34 1572 453.68 1572 453 1572 C453 1572.66 453 1573.32 453 1574 C452.01 1574 451.02 1574 450 1574 C450 1574.66 450 1575.32 450 1576 C443.25 1580 443.25 1580 441 1580 C441 1580.66 441 1581.32 441 1582 C438.8125 1583.4375 438.8125 1583.4375 436 1585 C435.175 1585.495 434.35 1585.99 433.5 1586.5 C426 1591 426 1591 423.49609375 1592.43359375 C419.91544799 1594.68060306 416.81199784 1597.42465477 413.59765625 1600.16015625 C410.80474993 1602.1382899 408.2796368 1603.07864643 405 1604 C405 1604.66 405 1605.32 405 1606 C404.01 1606 403.02 1606 402 1606 C402 1606.66 402 1607.32 402 1608 C395.25 1612 395.25 1612 393 1612 C393 1612.66 393 1613.32 393 1614 C390.73735819 1615.50842788 388.49196787 1616.78476406 386 1617.875 C383.8025651 1618.9750101 383.8025651 1618.9750101 381.875 1621.3125 C378.61416423 1624.36067257 375.43045543 1625.8575676 371.42578125 1627.73828125 C369.21975755 1628.88569776 367.58705214 1630.03463779 365.75 1631.6875 C362.87511784 1634.10501454 360.60307796 1635.05633672 357 1636 C357 1636.66 357 1637.32 357 1638 C356.01 1638 355.02 1638 354 1638 C354 1638.66 354 1639.32 354 1640 C347.25 1644 347.25 1644 345 1644 C345 1644.66 345 1645.32 345 1646 C342.73735819 1647.50842788 340.49196787 1648.78476406 338 1649.875 C335.8025651 1650.9750101 335.8025651 1650.9750101 333.875 1653.3125 C330.60790553 1656.36652309 327.41215326 1657.86381983 323.40234375 1659.75390625 C320.84357056 1661.08113983 318.88248421 1662.74710725 316.7578125 1664.68359375 C314.3353484 1666.4977502 311.72567578 1667.69073805 309 1669 C304.30262588 1671.26191291 300.8757286 1673.5646951 297 1677 C294.9648617 1678.34478747 292.89385227 1679.61356034 290.80859375 1680.87890625 C288.91613965 1682.01305521 288.91613965 1682.01305521 286.9375 1683.5625 C284.65176689 1685.2583665 282.20409607 1686.57924147 279.72265625 1687.96484375 C277.80418876 1689.0655899 277.80418876 1689.0655899 275.5 1691 C273.49815867 1692.60147306 271.7205524 1693.77486764 269.5 1695 C265.30487819 1697.32860973 261.83680798 1700.25828384 258.25 1703.4375 C255.11964974 1706.08000346 251.68287774 1707.91969332 248.05078125 1709.7890625 C246.00079209 1710.99953229 244.65493153 1712.3091892 243 1714 C239.625 1715.9375 239.625 1715.9375 237.9140625 1716.83984375 C235.85221323 1718.02637144 235.85221323 1718.02637144 233.64453125 1719.9453125 C230.88768123 1722.08726687 228.22307762 1723.46907205 225.0625 1724.9375 C220.36870154 1727.22407502 216.80997648 1729.46216469 213 1733 C208.903823 1736.64104623 204.92950739 1739.27807737 200.05078125 1741.7890625 C198.00079209 1742.99953229 196.65493153 1744.3091892 195 1746 C191.625 1747.9375 191.625 1747.9375 189.9140625 1748.83984375 C187.85221323 1750.02637144 187.85221323 1750.02637144 185.64453125 1751.9453125 C182.88768123 1754.08726687 180.22307762 1755.46907205 177.0625 1756.9375 C172.36870154 1759.22407502 168.80997648 1761.46216469 165 1765 C160.903823 1768.64104623 156.92950739 1771.27807737 152.05078125 1773.7890625 C150.00079209 1774.99953229 148.65493153 1776.3091892 147 1778 C145.25898168 1778.99947348 143.51666834 1779.99710507 141.7578125 1780.96484375 C139.80569944 1782.0583734 139.80569944 1782.0583734 137.5 1784 C135.04268889 1785.96584889 132.59124681 1787.462829 129.84375 1788.97265625 C125.36080603 1791.47056783 121.30884814 1794.22885581 117.25 1797.375 C112.9357074 1800.65194728 108.67778673 1803.4972022 103.83984375 1805.9296875 C101.87843321 1807.07072038 100.58503888 1808.3896005 99 1810 C97.25898168 1810.99947348 95.51666834 1811.99710507 93.7578125 1812.96484375 C91.80569944 1814.0583734 91.80569944 1814.0583734 89.5 1816 C87.04268889 1817.96584889 84.59124681 1819.462829 81.84375 1820.97265625 C77.36080603 1823.47056783 73.30884814 1826.22885581 69.25 1829.375 C64.9357074 1832.65194728 60.67778673 1835.4972022 55.83984375 1837.9296875 C53.87843321 1839.07072038 52.58503888 1840.3896005 51 1842 C49.25898168 1842.99947348 47.51666834 1843.99710507 45.7578125 1844.96484375 C43.80569944 1846.0583734 43.80569944 1846.0583734 41.5 1848 C39.04268889 1849.96584889 36.59124681 1851.462829 33.84375 1852.97265625 C28.07327893 1856.18798229 22.97058618 1860.01019669 17.7421875 1864.0390625 C15 1866 15 1866 12 1867 C11.21625 1867.78375 10.4325 1868.5675 9.625 1869.375 C7.18324444 1871.81675556 5.05568447 1873.43086473 2 1875 C1.34 1875 0.68 1875 0 1875 C0 1256.25 0 637.5 0 0 Z " fill="#11457E" transform="translate(0,0)"/>
<path d="M0 0 C1.47534066 -0.00766852 1.47534066 -0.00766852 2.98048619 -0.01549195 C6.30915496 -0.02783959 9.63707866 -0.01143546 12.96572328 0.00460267 C15.37333597 0.00164648 17.78094705 -0.00306534 20.18855327 -0.00938332 C25.45663066 -0.01913442 30.72448468 -0.01633173 35.99253783 -0.00273874 C43.87891339 0.01753072 51.76516502 0.01476037 59.65155719 0.00739495 C73.09020885 -0.00448406 86.52879114 0.00264126 99.96743417 0.01997209 C113.59187133 0.03746528 127.21627263 0.04626466 140.84072137 0.04436326 C142.13000349 0.04419111 142.13000349 0.04419111 143.44533171 0.04401548 C147.82779018 0.04339 152.21024862 0.04262221 156.59270706 0.04180413 C188.33936272 0.03616938 220.08598645 0.04991395 251.8326323 0.07387376 C283.27929427 0.09755054 314.72594256 0.11297149 346.17261338 0.11728501 C347.63665428 0.11749148 347.63665428 0.11749148 349.13027175 0.11770213 C358.04456492 0.1189549 366.95885809 0.12010566 375.87315129 0.12113403 C398.03469274 0.12369186 420.19623387 0.1275293 442.35777497 0.13223481 C443.36704665 0.13244808 444.37631833 0.13266135 445.41617399 0.13288108 C494.53084138 0.14337127 543.64549973 0.16860319 592.76016068 0.19503617 C609.80750355 0.20420268 626.85484645 0.21330407 643.90218949 0.22213578 C644.95944405 0.22268358 646.01669861 0.22323138 647.10599118 0.22379577 C696.24020034 0.24916449 745.37441104 0.264072 794.50862502 0.27627496 C797.69781968 0.27706722 800.88701433 0.27786399 804.07620899 0.27866168 C825.21088097 0.28394073 846.34555298 0.28903934 867.48022503 0.29401712 C909.5342325 0.30392354 951.58823967 0.31489029 993.64224667 0.32658531 C995.64504148 0.32714226 997.64783629 0.32769848 999.65063111 0.32825396 C1089.83053736 0.35327147 1180.01043699 0.39062485 1270.19033647 0.43331742 C1271.03488036 0.43371716 1271.87942426 0.43411691 1272.7495604 0.43452876 C1314.98925957 0.45453127 1357.22895837 0.4752374 1399.46865678 0.49679399 C1399.46865678 0.82679399 1399.46865678 1.15679399 1399.46865678 1.49679399 C1398.2488534 1.49719417 1397.02905003 1.49759435 1395.77228292 1.49800666 C1354.00872048 1.51173094 1312.24515828 1.52612114 1270.48159623 1.54098344 C1269.21961898 1.54143245 1269.21961898 1.54143245 1267.93214725 1.54189053 C1177.80451827 1.57397614 1087.67689232 1.61043984 997.54926896 1.65577531 C995.54785411 1.65678093 993.54643927 1.65778656 991.54502442 1.65879218 C949.53708704 1.6799126 907.52915 1.70164969 865.52121332 1.72409936 C844.42001219 1.7353755 823.31881101 1.74653312 802.21760976 1.75757867 C799.03452402 1.75924557 795.85143827 1.76091585 792.66835253 1.76258626 C743.63895898 1.78828607 694.60956584 1.81144004 645.58016801 1.82723832 C643.99826367 1.82774812 643.99826367 1.82774812 642.38440166 1.82826821 C625.38050389 1.83373257 608.37660605 1.83898375 591.3727082 1.84420665 C542.41098367 1.85924893 493.44926197 1.87586109 444.48754239 1.90291715 C442.97803983 1.90375014 442.97803983 1.90375014 441.43804227 1.90459996 C419.34936721 1.91681754 397.2606927 1.92984626 375.17201858 1.94364356 C366.28499397 1.94918038 357.3979693 1.95460038 348.5109446 1.95998025 C347.53828357 1.96057188 346.56562254 1.96116351 345.56348693 1.96177307 C314.19671352 1.98079405 282.82994605 1.99029572 251.46316747 1.99482993 C219.87989123 1.99943885 188.29663393 2.0133314 156.71336836 2.04022032 C152.35378722 2.04392958 147.994206 2.04753181 143.63462472 2.0510695 C142.35266593 2.05211558 142.35266593 2.05211558 141.04480898 2.05318279 C127.48509701 2.06396977 113.92540387 2.06464972 100.36568884 2.06116199 C87.04828391 2.05794266 73.73092041 2.06531141 60.41352797 2.08411809 C52.59551276 2.0948347 44.77759882 2.0972526 36.95958156 2.08765945 C31.17080202 2.08146132 25.38211702 2.0907212 19.59335248 2.10623466 C17.2546451 2.1100531 14.91592289 2.1087562 12.5772223 2.10194999 C9.41959815 2.09347797 6.26255178 2.10323581 3.10496241 2.11778647 C2.19059668 2.11091909 1.27623096 2.10405171 0.33415718 2.09697623 C-4.5789716 2.1417409 -7.39255103 2.60393553 -11.53134322 5.49679399 C-12.19134322 5.16679399 -12.85134322 4.83679399 -13.53134322 4.49679399 C-9.87029875 -0.63634056 -5.77729637 -0.0630984 0 0 Z " fill="#BC1F25" transform="translate(1413.5313432216644,937.5032060146332)"/>
<path d="M0 0 C0 0.66 0 1.32 0 2 C-1.19625 2.53625 -2.3925 3.0725 -3.625 3.625 C-7.28446681 5.43859819 -9.79774699 7.47960911 -12.48046875 10.53515625 C-16.14448932 14.06730975 -21.11458986 16.17619363 -25.5625 18.5625 C-27.23505859 19.46162109 -27.23505859 19.46162109 -28.94140625 20.37890625 C-31.28062922 21.6187243 -33.62425447 22.83245758 -36 24 C-31.375 19.125 -31.375 19.125 -28 18 C-28 17.34 -28 16.68 -28 16 C-22.25 13 -22.25 13 -20 13 C-19.67 12.01 -19.34 11.02 -19 10 C-18.01 10 -17.02 10 -16 10 C-16 9.34 -16 8.68 -16 8 C-14.20963542 7.0234375 -12.41927083 6.046875 -10.62890625 5.0703125 C-8.83381685 4.08589976 -8.83381685 4.08589976 -8 2 C-2.77777778 0 -2.77777778 0 0 0 Z " fill="#8E263E" transform="translate(1150,1109)"/>
<path d="M0 0 C0.66 0.33 1.32 0.66 2 1 C0.7934375 1.8971875 0.7934375 1.8971875 -0.4375 2.8125 C-3.22327984 4.80947276 -3.22327984 4.80947276 -4 8 C-9.25714286 12 -9.25714286 12 -13 12 C-13 12.66 -13 13.32 -13 14 C-18.09809639 17.55321869 -23.84720884 20.06775892 -30 21 C-30 21.66 -30 22.32 -30 23 C-30.66 22.67 -31.32 22.34 -32 22 C-31.67 21.34 -31.34 20.68 -31 20 C-30.01 20 -29.02 20 -28 20 C-28 19.34 -28 18.68 -28 18 C-27.01 18 -26.02 18 -25 18 C-25 17.34 -25 16.68 -25 16 C-23.68 16 -22.36 16 -21 16 C-21 15.34 -21 14.68 -21 14 C-18.3009306 11.99139021 -15.79612049 10.29068873 -12.625 9.1328125 C-9.52015496 7.79292401 -7.29003598 6.02642975 -4.6875 3.875 C-3.80449219 3.15054687 -2.92148437 2.42609375 -2.01171875 1.6796875 C-1.34785156 1.12539062 -0.68398438 0.57109375 0 0 Z " fill="#93263C" transform="translate(981,1219)"/>
<path d="M0 0 C0.66 0.33 1.32 0.66 2 1 C0.7934375 1.8971875 0.7934375 1.8971875 -0.4375 2.8125 C-3.22327984 4.80947276 -3.22327984 4.80947276 -4 8 C-9.25714286 12 -9.25714286 12 -13 12 C-13 12.66 -13 13.32 -13 14 C-18.09809639 17.55321869 -23.84720884 20.06775892 -30 21 C-30 21.66 -30 22.32 -30 23 C-30.66 22.67 -31.32 22.34 -32 22 C-31.67 21.34 -31.34 20.68 -31 20 C-30.01 20 -29.02 20 -28 20 C-28 19.34 -28 18.68 -28 18 C-27.01 18 -26.02 18 -25 18 C-25 17.34 -25 16.68 -25 16 C-23.68 16 -22.36 16 -21 16 C-21 15.34 -21 14.68 -21 14 C-18.3009306 11.99139021 -15.79612049 10.29068873 -12.625 9.1328125 C-9.52015496 7.79292401 -7.29003598 6.02642975 -4.6875 3.875 C-3.80449219 3.15054687 -2.92148438 2.42609375 -2.01171875 1.6796875 C-1.34785156 1.12539062 -0.68398437 0.57109375 0 0 Z " fill="#93263C" transform="translate(1029,1187)"/>
<path d="M0 0 C0.66 0.33 1.32 0.66 2 1 C-3.56227387 6.5359747 -8.26793013 10.245204 -16 12 C-16 12.99 -16 13.98 -16 15 C-18.30368736 16.06652192 -20.64018187 17.06421005 -23 18 C-23.66 17.67 -24.32 17.34 -25 17 C-23.71283353 15.99421411 -22.42011342 14.99553202 -21.125 14 C-20.40570312 13.443125 -19.68640625 12.88625 -18.9453125 12.3125 C-17 11 -17 11 -15 11 C-15 10.34 -15 9.68 -15 9 C-13.49609375 7.8515625 -13.49609375 7.8515625 -11.4375 6.625 C-10.71175781 6.191875 -9.98601563 5.75875 -9.23828125 5.3125 C-8.49964844 4.879375 -7.76101563 4.44625 -7 4 C-6.33355469 3.5875 -5.66710937 3.175 -4.98046875 2.75 C-3.35884069 1.76678131 -1.68253282 0.87491707 0 0 Z " fill="#91273D" transform="translate(633,1452)"/>
<path d="M0 0 C0.66 0.33 1.32 0.66 2 1 C-3.56227387 6.5359747 -8.26793013 10.245204 -16 12 C-16 12.99 -16 13.98 -16 15 C-18.30368736 16.06652192 -20.64018187 17.06421005 -23 18 C-23.66 17.67 -24.32 17.34 -25 17 C-23.71283353 15.99421411 -22.42011342 14.99553202 -21.125 14 C-20.40570312 13.443125 -19.68640625 12.88625 -18.9453125 12.3125 C-17 11 -17 11 -15 11 C-15 10.34 -15 9.68 -15 9 C-13.49609375 7.8515625 -13.49609375 7.8515625 -11.4375 6.625 C-10.71175781 6.191875 -9.98601563 5.75875 -9.23828125 5.3125 C-8.49964844 4.879375 -7.76101563 4.44625 -7 4 C-6.33355469 3.5875 -5.66710937 3.175 -4.98046875 2.75 C-3.35884069 1.76678131 -1.68253282 0.87491707 0 0 Z " fill="#91273D" transform="translate(681,1420)"/>
<path d="M0 0 C0.66 0.33 1.32 0.66 2 1 C-0.77171776 3.97703018 -3.51075252 5.94223867 -7 8 C-7.63421875 8.69222656 -7.63421875 8.69222656 -8.28125 9.3984375 C-10.59246433 11.55206903 -13.09802863 12.69014734 -15.9375 14.0625 C-16.97777344 14.56910156 -18.01804687 15.07570313 -19.08984375 15.59765625 C-20.05019531 16.06042969 -21.01054688 16.52320313 -22 17 C-23.33464566 17.66403553 -24.66859714 18.32948627 -26 19 C-21.375 14.125 -21.375 14.125 -18 13 C-18 12.34 -18 11.68 -18 11 C-13.68490262 7.62596109 -8.60573946 5.20786608 -3.6640625 2.89453125 C-1.80743657 1.99944889 -1.80743657 1.99944889 0 0 Z " fill="#842944" transform="translate(1092,1146)"/>
<path d="M0 0 C0.66 0.33 1.32 0.66 2 1 C-7.22551253 10 -7.22551253 10 -13 10 C-13 10.99 -13 11.98 -13 13 C-13.99 13 -14.98 13 -16 13 C-16 13.66 -16 14.32 -16 15 C-17.98 15.33 -19.96 15.66 -22 16 C-21 14 -21 14 -19 12.8125 C-16.33718523 11.20371608 -14.04990955 9.49911719 -11.625 7.5625 C-7.88793401 4.62400571 -4.27368878 2.09323532 0 0 Z " fill="#A32336" transform="translate(585,1484)"/>
<path d="M0 0 C0.66 0.33 1.32 0.66 2 1 C-3.67238435 6.52166883 -9.41176343 11.37495786 -17 14 C-17.66 13.67 -18.32 13.34 -19 13 C-17.68 12.34 -16.36 11.68 -15 11 C-15 10.34 -15 9.68 -15 9 C-13.49609375 7.8515625 -13.49609375 7.8515625 -11.4375 6.625 C-10.71175781 6.191875 -9.98601563 5.75875 -9.23828125 5.3125 C-8.49964844 4.879375 -7.76101563 4.44625 -7 4 C-6.33355469 3.5875 -5.66710937 3.175 -4.98046875 2.75 C-3.35884069 1.76678131 -1.68253282 0.87491707 0 0 Z " fill="#8A2942" transform="translate(729,1388)"/>
<path d="M0 0 C0.66 0.33 1.32 0.66 2 1 C-2.50524279 4.59460861 -6.90447768 7.60314534 -12.1171875 10.06640625 C-16.40015599 12.19011884 -20.22146977 15.09343829 -24 18 C-24.66 17.67 -25.32 17.34 -26 17 C-24.68 16.34 -23.36 15.68 -22 15 C-22 14.34 -22 13.68 -22 13 C-19.8828125 11.4921875 -19.8828125 11.4921875 -17.125 9.875 C-16.22007813 9.33617187 -15.31515625 8.79734375 -14.3828125 8.2421875 C-12 7 -12 7 -10 7 C-10 6.34 -10 5.68 -10 5 C-8.38007835 4.13624104 -6.75388139 3.28424146 -5.125 2.4375 C-4.22007813 1.96183594 -3.31515625 1.48617188 -2.3828125 0.99609375 C-1.59648438 0.66738281 -0.81015625 0.33867188 0 0 Z " fill="#752C49" transform="translate(1180,1088)"/>
<path d="M0 0 C0.66 0.33 1.32 0.66 2 1 C-2.50524279 4.59460861 -6.90447768 7.60314534 -12.1171875 10.06640625 C-16.40015599 12.19011884 -20.22146977 15.09343829 -24 18 C-24.66 17.67 -25.32 17.34 -26 17 C-24.68 16.34 -23.36 15.68 -22 15 C-22 14.34 -22 13.68 -22 13 C-19.8828125 11.4921875 -19.8828125 11.4921875 -17.125 9.875 C-16.22007813 9.33617187 -15.31515625 8.79734375 -14.3828125 8.2421875 C-12 7 -12 7 -10 7 C-10 6.34 -10 5.68 -10 5 C-8.38007835 4.13624104 -6.75388139 3.28424146 -5.125 2.4375 C-4.22007813 1.96183594 -3.31515625 1.48617188 -2.3828125 0.99609375 C-1.59648438 0.66738281 -0.81015625 0.33867188 0 0 Z " fill="#752C49" transform="translate(1228,1056)"/>
<path d="M0 0 C0 0.66 0 1.32 0 2 C-0.54269531 2.25394531 -1.08539062 2.50789063 -1.64453125 2.76953125 C-2.35996094 3.11371094 -3.07539062 3.45789062 -3.8125 3.8125 C-4.52019531 4.14894531 -5.22789063 4.48539063 -5.95703125 4.83203125 C-8.02935296 5.89341742 -8.02935296 5.89341742 -9.46875 7.5 C-11.36865503 9.36113145 -13.24346134 10.16029535 -15.6875 11.1875 C-16.49574219 11.53167969 -17.30398438 11.87585937 -18.13671875 12.23046875 C-18.75160156 12.48441406 -19.36648438 12.73835938 -20 13 C-19.67 12.01 -19.34 11.02 -19 10 C-18.01 10 -17.02 10 -16 10 C-16 9.34 -16 8.68 -16 8 C-14.20963542 7.0234375 -12.41927083 6.046875 -10.62890625 5.0703125 C-8.83381685 4.08589976 -8.83381685 4.08589976 -8 2 C-2.77777778 0 -2.77777778 0 0 0 Z " fill="#6C2E4D" transform="translate(1150,1109)"/>
<path d="M0 0 C0 0.99 0 1.98 0 3 C-1.216875 3.391875 -2.43375 3.78375 -3.6875 4.1875 C-7.77164963 5.6902945 -9.96412527 7.88207461 -13 11 C-15.8125 11.8125 -15.8125 11.8125 -18 12 C-16.85891229 8.57673686 -16.34969481 8.31400949 -13.375 6.5625 C-12.65828125 6.13710937 -11.9415625 5.71171875 -11.203125 5.2734375 C-10.11257813 4.64308594 -10.11257813 4.64308594 -9 4 C-8.33484375 3.60039063 -7.6696875 3.20078125 -6.984375 2.7890625 C-2.27659574 0 -2.27659574 0 0 0 Z " fill="#7A2B47" transform="translate(779,1356)"/>
<path d="M0 0 C0.66 0.33 1.32 0.66 2 1 C0.3970551 2.29318256 -1.20740142 3.58449156 -2.8125 4.875 C-3.70582031 5.59429688 -4.59914063 6.31359375 -5.51953125 7.0546875 C-10.5502008 11 -10.5502008 11 -15 11 C-15 11.66 -15 12.32 -15 13 C-15.66 12.67 -16.32 12.34 -17 12 C-16.67 11.34 -16.34 10.68 -16 10 C-15.01 10 -14.02 10 -13 10 C-13 9.34 -13 8.68 -13 8 C-12.01 8 -11.02 8 -10 8 C-10 7.34 -10 6.68 -10 6 C-8.68 6 -7.36 6 -6 6 C-6 5.34 -6 4.68 -6 4 C-4.03852126 2.61061923 -2.03833424 1.2739589 0 0 Z " fill="#533258" transform="translate(966,1229)"/>
<path d="M0 0 C0.66 0.33 1.32 0.66 2 1 C0.3970551 2.29318256 -1.20740142 3.58449156 -2.8125 4.875 C-3.70582031 5.59429688 -4.59914063 6.31359375 -5.51953125 7.0546875 C-10.5502008 11 -10.5502008 11 -15 11 C-15 11.66 -15 12.32 -15 13 C-15.66 12.67 -16.32 12.34 -17 12 C-16.67 11.34 -16.34 10.68 -16 10 C-15.01 10 -14.02 10 -13 10 C-13 9.34 -13 8.68 -13 8 C-12.01 8 -11.02 8 -10 8 C-10 7.34 -10 6.68 -10 6 C-8.68 6 -7.36 6 -6 6 C-6 5.34 -6 4.68 -6 4 C-4.03852126 2.61061923 -2.03833424 1.2739589 0 0 Z " fill="#533258" transform="translate(1014,1197)"/>
<path d="M0 0 C0.66 0.33 1.32 0.66 2 1 C-1.61783413 5.44006916 -6.71836201 7.98488028 -12 10 C-12.66 9.67 -13.32 9.34 -14 9 C-12.68 8.34 -11.36 7.68 -10 7 C-10 6.34 -10 5.68 -10 5 C-8.38007835 4.13624104 -6.75388139 3.28424146 -5.125 2.4375 C-4.22007813 1.96183594 -3.31515625 1.48617188 -2.3828125 0.99609375 C-1.20332031 0.50302734 -1.20332031 0.50302734 0 0 Z " fill="#872842" transform="translate(1276,1024)"/>
<path d="M0 0 C0.66 0.33 1.32 0.66 2 1 C-1.61783413 5.44006916 -6.71836201 7.98488028 -12 10 C-12.66 9.67 -13.32 9.34 -14 9 C-12.68 8.34 -11.36 7.68 -10 7 C-10 6.34 -10 5.68 -10 5 C-8.38007835 4.13624104 -6.75388139 3.28424146 -5.125 2.4375 C-4.22007813 1.96183594 -3.31515625 1.48617187 -2.3828125 0.99609375 C-1.20332031 0.50302734 -1.20332031 0.50302734 0 0 Z " fill="#872842" transform="translate(1324,992)"/>
<path d="M0 0 C-3.61783413 4.44006916 -8.71836201 6.98488028 -14 9 C-14.66 8.67 -15.32 8.34 -16 8 C-15.195625 7.38125 -14.39125 6.7625 -13.5625 6.125 C-10.96125481 4.25835959 -10.96125481 4.25835959 -10 2 C-8.22265625 1.11328125 -8.22265625 1.11328125 -6.0625 0.3125 C-5.35222656 0.04050781 -4.64195313 -0.23148438 -3.91015625 -0.51171875 C-2 -1 -2 -1 0 0 Z " fill="#862842" transform="translate(1374,961)"/>
<path d="M0 0 C0.33 0.66 0.66 1.32 1 2 C0.01 2 -0.98 2 -2 2 C-2.20625 2.598125 -2.4125 3.19625 -2.625 3.8125 C-5.45996472 8.32267114 -11.12789627 9.49196789 -16 11 C-14.59794495 8.19588991 -12.73272707 7.46169122 -10 6 C-7.6875 5.3125 -7.6875 5.3125 -6 5 C-6 4.34 -6 3.68 -6 3 C-4.02 2.01 -2.04 1.02 0 0 Z " fill="#A32336" transform="translate(399,1609)"/>
<path d="M0 0 C0 0.66 0 1.32 0 2 C-1.63183107 3.05589069 -3.30792999 4.0436126 -5 5 C-6.485 6.0209375 -6.485 6.0209375 -8 7.0625 C-10.64315965 8.76954061 -13.04622927 9.95749268 -16 11 C-16 10.34 -16 9.68 -16 9 C-14.34151823 7.98648336 -12.67334039 6.98879205 -11 6 C-10.34 5.319375 -9.68 4.63875 -9 3.9375 C-6.36306334 1.38296761 -3.71275029 0 0 0 Z " fill="#882941" transform="translate(1198,1077)"/>
<path d="M0 0 C0 0.66 0 1.32 0 2 C-1.63183107 3.05589069 -3.30792999 4.0436126 -5 5 C-6.485 6.0209375 -6.485 6.0209375 -8 7.0625 C-10.64315965 8.76954061 -13.04622927 9.95749268 -16 11 C-16 10.34 -16 9.68 -16 9 C-14.34151823 7.98648336 -12.67334039 6.98879205 -11 6 C-10.34 5.319375 -9.68 4.63875 -9 3.9375 C-6.36306334 1.38296761 -3.71275029 0 0 0 Z " fill="#882941" transform="translate(1246,1045)"/>
<path d="M0 0 C0.66 0.33 1.32 0.66 2 1 C-5.11389522 7.70387244 -5.11389522 7.70387244 -10 8 C-8.7820245 4.34607349 -7.85603494 4.04168301 -4.5625 2.25 C-3.75941406 1.80140625 -2.95632813 1.3528125 -2.12890625 0.890625 C-1.07509766 0.44976563 -1.07509766 0.44976563 0 0 Z " fill="#7C2A46" transform="translate(465,1564)"/>
<path d="M0 0 C0.66 0.33 1.32 0.66 2 1 C-5.11389522 7.70387244 -5.11389522 7.70387244 -10 8 C-8.7820245 4.34607349 -7.85603494 4.04168301 -4.5625 2.25 C-3.75941406 1.80140625 -2.95632813 1.3528125 -2.12890625 0.890625 C-1.07509766 0.44976563 -1.07509766 0.44976563 0 0 Z " fill="#7C2A46" transform="translate(513,1532)"/>
<path d="M0 0 C0.66 0.33 1.32 0.66 2 1 C-5.11389522 7.70387244 -5.11389522 7.70387244 -10 8 C-7.1524798 3.94775971 -4.63339243 1.8130666 0 0 Z " fill="#7F2A45" transform="translate(177,1756)"/>
<path d="M0 0 C0.66 0.33 1.32 0.66 2 1 C-5.11389522 7.70387244 -5.11389522 7.70387244 -10 8 C-7.1524798 3.94775971 -4.63339243 1.8130666 0 0 Z " fill="#7F2A45" transform="translate(225,1724)"/>
<path d="M0 0 C0.66 0.33 1.32 0.66 2 1 C-5.11389522 7.70387244 -5.11389522 7.70387244 -10 8 C-7.1524798 3.94775971 -4.63339243 1.8130666 0 0 Z " fill="#7F2A45" transform="translate(273,1692)"/>
<path d="M0 0 C0.66 0.33 1.32 0.66 2 1 C-5.11389522 7.70387244 -5.11389522 7.70387244 -10 8 C-7.1524798 3.94775971 -4.63339243 1.8130666 0 0 Z " fill="#7E2A45" transform="translate(285,1684)"/>
<path d="M0 0 C0.66 0.33 1.32 0.66 2 1 C-1.42531755 4.99620381 -5.32882514 6.82863356 -10 9 C-11.3351826 9.66295525 -12.66905183 10.32858418 -14 11 C-11.79330553 6.86244787 -10.36832187 4.82674749 -5.875 3.25 C-5.19179687 3.04890625 -4.50859375 2.8478125 -3.8046875 2.640625 C-1.781442 2.06798973 -1.781442 2.06798973 0 0 Z " fill="#7B2A45" transform="translate(1260,1034)"/>
<path d="M0 0 C0.66 0.33 1.32 0.66 2 1 C-1.42531755 4.99620381 -5.32882514 6.82863356 -10 9 C-11.3351826 9.66295525 -12.66905183 10.32858418 -14 11 C-11.79330553 6.86244787 -10.36832187 4.82674749 -5.875 3.25 C-5.19179687 3.04890625 -4.50859375 2.8478125 -3.8046875 2.640625 C-1.781442 2.06798973 -1.781442 2.06798973 0 0 Z " fill="#7B2A45" transform="translate(1308,1002)"/>
<path d="M0 0 C0.66 0.33 1.32 0.66 2 1 C-1.42531755 4.99620381 -5.32882514 6.82863356 -10 9 C-11.3351826 9.66295525 -12.66905183 10.32858418 -14 11 C-11.79330553 6.86244787 -10.36832187 4.82674749 -5.875 3.25 C-5.19179687 3.04890625 -4.50859375 2.8478125 -3.8046875 2.640625 C-1.781442 2.06798973 -1.781442 2.06798973 0 0 Z " fill="#7B2A45" transform="translate(1356,970)"/>
<path d="M0 0 C0.33 0.66 0.66 1.32 1 2 C0.01 2 -0.98 2 -2 2 C-2 2.66 -2 3.32 -2 4 C-6.95 6.475 -6.95 6.475 -12 9 C-12.33 8.34 -12.66 7.68 -13 7 C-10.02819057 5.10134397 -7.48539917 3.64544429 -4 3 C-4 2.34 -4 1.68 -4 1 C-2.68 0.67 -1.36 0.34 0 0 Z " fill="#A72233" transform="translate(859,1303)"/>
<path d="M0 0 C0.33 0.66 0.66 1.32 1 2 C0.01 2 -0.98 2 -2 2 C-2 2.66 -2 3.32 -2 4 C-6.95 6.475 -6.95 6.475 -12 9 C-12.33 8.34 -12.66 7.68 -13 7 C-10.02819057 5.10134397 -7.48539917 3.64544429 -4 3 C-4 2.34 -4 1.68 -4 1 C-2.68 0.67 -1.36 0.34 0 0 Z " fill="#A72233" transform="translate(907,1271)"/>
<path d="M0 0 C0.33 0.66 0.66 1.32 1 2 C0.01 2 -0.98 2 -2 2 C-2 2.66 -2 3.32 -2 4 C-6.95 6.475 -6.95 6.475 -12 9 C-12.33 8.34 -12.66 7.68 -13 7 C-10.02819057 5.10134397 -7.48539917 3.64544429 -4 3 C-4 2.34 -4 1.68 -4 1 C-2.68 0.67 -1.36 0.34 0 0 Z " fill="#A72233" transform="translate(955,1239)"/>
<path d="M0 0 C0.33 0.66 0.66 1.32 1 2 C0.01 2 -0.98 2 -2 2 C-2 2.66 -2 3.32 -2 4 C-6.95 6.475 -6.95 6.475 -12 9 C-12.33 8.34 -12.66 7.68 -13 7 C-10.02819057 5.10134397 -7.48539917 3.64544429 -4 3 C-4 2.34 -4 1.68 -4 1 C-2.68 0.67 -1.36 0.34 0 0 Z " fill="#A72233" transform="translate(1003,1207)"/>
<path d="M0 0 C0.66 0.33 1.32 0.66 2 1 C-5.11389522 7.70387244 -5.11389522 7.70387244 -10 8 C-6.91367389 4.7373124 -4.06516496 1.97764782 0 0 Z " fill="#A82230" transform="translate(556,1504)"/>
<path d="M0 0 C0 0.66 0 1.32 0 2 C-2.1875 3.4375 -2.1875 3.4375 -5 5 C-5.886875 5.5775 -6.77375 6.155 -7.6875 6.75 C-8.8321875 7.36875 -8.8321875 7.36875 -10 8 C-10.66 7.67 -11.32 7.34 -12 7 C-8.5063473 3.20689136 -5.42241937 0 0 0 Z " fill="#832A43" transform="translate(1294,1013)"/>
<path d="M0 0 C0 0.66 0 1.32 0 2 C-2.1875 3.4375 -2.1875 3.4375 -5 5 C-5.886875 5.5775 -6.77375 6.155 -7.6875 6.75 C-8.8321875 7.36875 -8.8321875 7.36875 -10 8 C-10.66 7.67 -11.32 7.34 -12 7 C-8.5063473 3.20689136 -5.42241937 0 0 0 Z " fill="#832A43" transform="translate(1342,981)"/>
<path d="M0 0 C0 0.66 0 1.32 0 2 C-2.1875 3.4375 -2.1875 3.4375 -5 5 C-5.886875 5.5775 -6.77375 6.155 -7.6875 6.75 C-8.8321875 7.36875 -8.8321875 7.36875 -10 8 C-10.66 7.67 -11.32 7.34 -12 7 C-8.5063473 3.20689136 -5.42241937 0 0 0 Z " fill="#832A43" transform="translate(1390,949)"/>
<path d="M0 0 C0.66 0.33 1.32 0.66 2 1 C-5.11389522 7.70387244 -5.11389522 7.70387244 -10 8 C-7.1524798 3.94775971 -4.63339243 1.8130666 0 0 Z " fill="#802A46" transform="translate(297,1676)"/>
<path d="M0 0 C0.66 0.33 1.32 0.66 2 1 C-5.11389522 7.70387244 -5.11389522 7.70387244 -10 8 C-7.1524798 3.94775971 -4.63339243 1.8130666 0 0 Z " fill="#802A45" transform="translate(309,1668)"/>
<path d="M0 0 C0.66 0.33 1.32 0.66 2 1 C-0.40436026 4.60654039 -1.94679607 4.85452932 -6 6 C-6 6.66 -6 7.32 -6 8 C-7.65 8.33 -9.3 8.66 -11 9 C-11 8.34 -11 7.68 -11 7 C-8.84765625 5.52734375 -8.84765625 5.52734375 -6.0625 3.9375 C-2.84169663 2.22531095 -2.84169663 2.22531095 0 0 Z " fill="#A22437" transform="translate(1064,1165)"/>
<path d="M0 0 C0.66 0.33 1.32 0.66 2 1 C-0.40436026 4.60654039 -1.94679607 4.85452932 -6 6 C-6 6.66 -6 7.32 -6 8 C-7.65 8.33 -9.3 8.66 -11 9 C-11 8.34 -11 7.68 -11 7 C-8.84765625 5.52734375 -8.84765625 5.52734375 -6.0625 3.9375 C-2.84169663 2.22531095 -2.84169663 2.22531095 0 0 Z " fill="#A22437" transform="translate(1112,1133)"/>
<path d="M0 0 C0 0.66 0 1.32 0 2 C-3.45730521 4.44045073 -6.96678237 5.78065514 -11 7 C-8.02900258 2.81859623 -5.38529922 0 0 0 Z " fill="#822943" transform="translate(802,1341)"/>
<path d="M0 0 C0.66 0.33 1.32 0.66 2 1 C-0.37524249 3.75028078 -2.6159924 4.76194844 -6 6 C-7.34050052 6.65213539 -8.67661368 7.31379969 -10 8 C-7.1524798 3.94775971 -4.63339243 1.8130666 0 0 Z " fill="#6C2E4B" transform="translate(585,1484)"/>
<path d="M0 0 C0.66 0.33 1.32 0.66 2 1 C-1.625 4 -1.625 4 -5 4 C-5 4.99 -5 5.98 -5 7 C-6.65 7.33 -8.3 7.66 -10 8 C-7.1524798 3.94775971 -4.63339243 1.8130666 0 0 Z " fill="#792B47" transform="translate(429,1588)"/>
<path d="M0 0 C0 0.99 0 1.98 0 3 C-1.85625 3.680625 -1.85625 3.680625 -3.75 4.375 C-6.59245495 5.4384007 -9.32663046 6.55192483 -12 8 C-9.03433209 3.77962644 -5.51765687 0 0 0 Z " fill="#7C2A46" transform="translate(707,1404)"/>
<path d="M0 0 C0 0.99 0 1.98 0 3 C-0.721875 3.268125 -1.44375 3.53625 -2.1875 3.8125 C-5.05633076 4.93515158 -5.05633076 4.93515158 -7.6875 6.6875 C-8.450625 7.120625 -9.21375 7.55375 -10 8 C-10.66 7.67 -11.32 7.34 -12 7 C-11.0925 6.401875 -10.185 5.80375 -9.25 5.1875 C-7.37951098 3.928517 -5.52976912 2.63426487 -3.75 1.25 C-2 0 -2 0 0 0 Z " fill="#96253A" transform="translate(743,1380)"/>
<path d="M0 0 C0 0.99 0 1.98 0 3 C-1.85625 3.680625 -1.85625 3.680625 -3.75 4.375 C-6.59245495 5.4384007 -9.32663046 6.55192483 -12 8 C-9.03433209 3.77962644 -5.51765687 0 0 0 Z " fill="#7C2A46" transform="translate(755,1372)"/>
<path d="M0 0 C0 0.99 0 1.98 0 3 C-0.721875 3.268125 -1.44375 3.53625 -2.1875 3.8125 C-5.05633076 4.93515158 -5.05633076 4.93515158 -7.6875 6.6875 C-8.450625 7.120625 -9.21375 7.55375 -10 8 C-10.66 7.67 -11.32 7.34 -12 7 C-11.0925 6.401875 -10.185 5.80375 -9.25 5.1875 C-7.37951098 3.928517 -5.52976912 2.63426487 -3.75 1.25 C-2 0 -2 0 0 0 Z " fill="#96253A" transform="translate(791,1348)"/>
<path d="M0 0 C0.66 0.33 1.32 0.66 2 1 C-1.01887244 4.48331435 -3.56909529 5.79157144 -8 7 C-3.76744186 1.25581395 -3.76744186 1.25581395 0 0 Z " fill="#A82233" transform="translate(892,1280)"/>
<path d="M0 0 C0.66 0.33 1.32 0.66 2 1 C-1.01887244 4.48331435 -3.56909529 5.79157144 -8 7 C-3.76744186 1.25581395 -3.76744186 1.25581395 0 0 Z " fill="#A82233" transform="translate(940,1248)"/>
<path d="M0 0 C0.66 0.33 1.32 0.66 2 1 C-0.6598561 4.44216672 -3.90288286 4.99504674 -8 6 C-3.375 1.125 -3.375 1.125 0 0 Z " fill="#692F4E" transform="translate(633,1452)"/>
<path d="M0 0 C0.66 0.33 1.32 0.66 2 1 C-0.6598561 4.44216672 -3.90288286 4.99504674 -8 6 C-3.375 1.125 -3.375 1.125 0 0 Z " fill="#692F4E" transform="translate(681,1420)"/>
<path d="M0 0 C0.66 0.33 1.32 0.66 2 1 C-0.6598561 4.44216672 -3.90288286 4.99504674 -8 6 C-3.375 1.125 -3.375 1.125 0 0 Z " fill="#692F4E" transform="translate(729,1388)"/>
<path d="M0 0 C0.66 0.33 1.32 0.66 2 1 C-0.83430453 4.2542015 -2.68607774 5.5206753 -7 6 C-5.01180815 3.01771223 -3.42353587 1.21480305 0 0 Z " fill="#A62233" transform="translate(844,1312)"/>
<path d="M0 0 C-3.06117568 2.62386487 -3.73173127 3 -8 3 C-8 3.66 -8 4.32 -8 5 C-8.66 4.67 -9.32 4.34 -10 4 C-9.67 3.34 -9.34 2.68 -9 2 C-8.01 2 -7.02 2 -6 2 C-6 1.34 -6 0.68 -6 0 C-2.25 -1.125 -2.25 -1.125 0 0 Z " fill="#593258" transform="translate(863,1301)"/>
<path d="M0 0 C-3.06117568 2.62386487 -3.73173127 3 -8 3 C-8 3.66 -8 4.32 -8 5 C-8.66 4.67 -9.32 4.34 -10 4 C-9.67 3.34 -9.34 2.68 -9 2 C-8.01 2 -7.02 2 -6 2 C-6 1.34 -6 0.68 -6 0 C-2.25 -1.125 -2.25 -1.125 0 0 Z " fill="#593258" transform="translate(911,1269)"/>
<path d="M0 0 C0.66 0.33 1.32 0.66 2 1 C-0.83430453 4.2542015 -2.68607774 5.5206753 -7 6 C-5.01180815 3.01771223 -3.42353587 1.21480305 0 0 Z " fill="#A52233" transform="translate(988,1216)"/>
<path d="M0 0 C0.66 0.33 1.32 0.66 2 1 C-0.83430453 4.2542015 -2.68607774 5.5206753 -7 6 C-5.01180815 3.01771223 -3.42353587 1.21480305 0 0 Z " fill="#A52233" transform="translate(1036,1184)"/>
<path d="M0 0 C0.66 0.33 1.32 0.66 2 1 C0.02 1.99 0.02 1.99 -2 3 C-2 3.66 -2 4.32 -2 5 C-3.65 5.33 -5.3 5.66 -7 6 C-7 5.34 -7 4.68 -7 4 C-1.7265625 0.77734375 -1.7265625 0.77734375 0 0 Z " fill="#A32333" transform="translate(364,1632)"/>
</svg>
