<?xml version="1.0" encoding="UTF-8"?>
<svg version="1.1" xmlns="http://www.w3.org/2000/svg" width="1024" height="539">
<path d="M0 0 C337.92 0 675.84 0 1024 0 C1024 177.87 1024 355.74 1024 539 C686.08 539 348.16 539 0 539 C0 361.13 0 183.26 0 0 Z " fill="#0B3161" transform="translate(0,0)"/>
<path d="M0 0 C337.92 0 675.84 0 1024 0 C1024 82.17 1024 164.34 1024 249 C686.08 249 348.16 249 0 249 C0 166.83 0 84.66 0 0 Z " fill="#FDFBFC" transform="translate(0,290)"/>
<path d="M0 0 C337.92 0 675.84 0 1024 0 C1024 13.86 1024 27.72 1024 42 C686.08 42 348.16 42 0 42 C0 28.14 0 14.28 0 0 Z " fill="#B31B44" transform="translate(0,497)"/>
<path d="M0 0 C337.92 0 675.84 0 1024 0 C1024 13.53 1024 27.06 1024 41 C686.08 41 348.16 41 0 41 C0 27.47 0 13.94 0 0 Z " fill="#FEFEFE" transform="translate(0,456)"/>
<path d="M0 0 C337.92 0 675.84 0 1024 0 C1024 13.53 1024 27.06 1024 41 C686.08 41 348.16 41 0 41 C0 27.47 0 13.94 0 0 Z " fill="#B31942" transform="translate(0,415)"/>
<path d="M0 0 C337.92 0 675.84 0 1024 0 C1024 13.53 1024 27.06 1024 41 C686.08 41 348.16 41 0 41 C0 27.47 0 13.94 0 0 Z " fill="#B31942" transform="translate(0,332)"/>
<path d="M0 0 C202.95 0 405.9 0 615 0 C615 13.86 615 27.72 615 42 C412.05 42 209.1 42 0 42 C0 28.14 0 14.28 0 0 Z " fill="#FDFBFC" transform="translate(409,207)"/>
<path d="M0 0 C202.95 0 405.9 0 615 0 C615 13.86 615 27.72 615 42 C412.05 42 209.1 42 0 42 C0 28.14 0 14.28 0 0 Z " fill="#FDFBFC" transform="translate(409,124)"/>
<path d="M0 0 C202.95 0 405.9 0 615 0 C615 13.86 615 27.72 615 42 C412.05 42 209.1 42 0 42 C0 28.14 0 14.28 0 0 Z " fill="#FDFBFC" transform="translate(409,41)"/>
<path d="M0 0 C202.62 0 405.24 0 614 0 C614 13.53 614 27.06 614 41 C411.38 41 208.76 41 0 41 C0 27.47 0 13.94 0 0 Z " fill="#B31942" transform="translate(410,249)"/>
<path d="M0 0 C202.62 0 405.24 0 614 0 C614 13.53 614 27.06 614 41 C411.38 41 208.76 41 0 41 C0 27.47 0 13.94 0 0 Z " fill="#B31942" transform="translate(410,166)"/>
<path d="M0 0 C202.62 0 405.24 0 614 0 C614 13.53 614 27.06 614 41 C411.38 41 208.76 41 0 41 C0 27.47 0 13.94 0 0 Z " fill="#B31942" transform="translate(410,83)"/>
<path d="M0 0 C202.62 0 405.24 0 614 0 C614 13.53 614 27.06 614 41 C411.38 41 208.76 41 0 41 C0 27.47 0 13.94 0 0 Z " fill="#B31942" transform="translate(410,0)"/>
<path d="M0 0 C3.12259437 3.12259437 3.14293342 6.71466712 4 11 C7.96 11 11.92 11 16 11 C12 15 12 15 7 17 C8.485 22.94 8.485 22.94 10 29 C6 27 6 27 4 25.3125 C2.14575816 23.82042137 2.14575816 23.82042137 0.1875 24.0625 C-3.04281331 25.44691999 -5.98101912 27.20022294 -9 29 C-8.68950274 27.56206608 -8.3765224 26.1246682 -8.0625 24.6875 C-7.88847656 23.88699219 -7.71445313 23.08648437 -7.53515625 22.26171875 C-7 20 -7 20 -6 17 C-6.7425 16.7525 -7.485 16.505 -8.25 16.25 C-11 15 -11 15 -15 11 C-11.04 11 -7.08 11 -3 11 C-2.690625 9.55625 -2.38125 8.1125 -2.0625 6.625 C-1.54516353 4.21076314 -1.10514766 2.21029533 0 0 Z " fill="#F1F3F6" transform="translate(102,245)"/>
<path d="M0 0 C2.45823172 3.68734758 3.01242616 6.69699971 4 11 C7.63 11 11.26 11 15 11 C12.33333333 13.66666667 9.66666667 16.33333333 7 19 C7.99 22.3 8.98 25.6 10 29 C6 27 6 27 3.5625 25.25 C1.07498716 23.69645152 1.07498716 23.69645152 -1.5 24.625 C-4.04231135 26.02327124 -6.54334829 27.45581892 -9 29 C-8.34 25.37 -7.68 21.74 -7 18 C-8.32 17.030625 -9.64 16.06125 -11 15.0625 C-12.35348244 14.06853634 -13.69243643 13.0536394 -15 12 C-15 11.67 -15 11.34 -15 11 C-11.04 11 -7.08 11 -3 11 C-2.87625 9.9275 -2.7525 8.855 -2.625 7.75 C-2.10356064 4.62136385 -1.59911746 2.66519576 0 0 Z " fill="#F1F3F6" transform="translate(34,245)"/>
<path d="M0 0 C2.45823172 3.68734758 3.01242616 6.69699971 4 11 C7.63 11 11.26 11 15 11 C10.375 15.875 10.375 15.875 7 17 C8.485 22.94 8.485 22.94 10 29 C6 27 6 27 4 25.3125 C2.14575816 23.82042137 2.14575816 23.82042137 0.1875 24.0625 C-3.04281331 25.44691999 -5.98101912 27.20022294 -9 29 C-8.34 25.37 -7.68 21.74 -7 18 C-8.32 17.030625 -9.64 16.06125 -11 15.0625 C-12.35348244 14.06853634 -13.69243643 13.0536394 -15 12 C-15 11.67 -15 11.34 -15 11 C-11.04 11 -7.08 11 -3 11 C-2.690625 9.55625 -2.38125 8.1125 -2.0625 6.625 C-1.54516353 4.21076314 -1.10514766 2.21029533 0 0 Z " fill="#F1F3F6" transform="translate(341,216)"/>
<path d="M0 0 C2 1 2 1 3.125 3.8125 C4 7 4 7 4 11 C7.96 11 11.92 11 16 11 C13.42215154 13.64752004 11.08351902 15.94432065 8 18 C8.66 21.63 9.32 25.26 10 29 C8.783125 28.13375 7.56625 27.2675 6.3125 26.375 C3.0478262 24.23049706 3.0478262 24.23049706 -0.75 24.5 C-2.90011212 25.93340808 -4.9962234 27.36729314 -7 29 C-7.66 28.67 -8.32 28.34 -9 28 C-8.67 26.9275 -8.34 25.855 -8 24.75 C-6.8282249 21.00268399 -6.8282249 21.00268399 -7 17 C-8.51534291 15.47141018 -8.51534291 15.47141018 -10.5 14.3125 C-11.67729696 13.55800215 -12.84704067 12.79118893 -14 12 C-14 11.67 -14 11.34 -14 11 C-10.37 11 -6.74 11 -3 11 C-2.01 7.37 -1.02 3.74 0 0 Z " fill="#F1F3F5" transform="translate(204,216)"/>
<path d="M0 0 C3.12259437 3.12259437 3.14293342 6.71466712 4 11 C7.96 11 11.92 11 16 11 C13.03368051 13.47193291 10.48763093 15.25618453 7 17 C8.485 22.94 8.485 22.94 10 29 C6 27 6 27 4 25.3125 C2.14575816 23.82042137 2.14575816 23.82042137 0.1875 24.0625 C-3.04281331 25.44691999 -5.98101912 27.20022294 -9 29 C-8.68950274 27.56206608 -8.3765224 26.1246682 -8.0625 24.6875 C-7.88847656 23.88699219 -7.71445313 23.08648437 -7.53515625 22.26171875 C-7 20 -7 20 -6 17 C-6.7425 16.7525 -7.485 16.505 -8.25 16.25 C-11 15 -11 15 -15 11 C-11.04 11 -7.08 11 -3 11 C-2.690625 9.55625 -2.38125 8.1125 -2.0625 6.625 C-1.54516353 4.21076314 -1.10514766 2.21029533 0 0 Z " fill="#F1F4F6" transform="translate(102,187)"/>
<path d="M0 0 C3.12259437 3.12259437 3.14293342 6.71466712 4 11 C7.96 11 11.92 11 16 11 C13.03368051 13.47193291 10.48763093 15.25618453 7 17 C8.485 22.94 8.485 22.94 10 29 C6 27 6 27 4 25.3125 C2.14575816 23.82042137 2.14575816 23.82042137 0.1875 24.0625 C-3.04281331 25.44691999 -5.98101912 27.20022294 -9 29 C-8.68950274 27.56206608 -8.3765224 26.1246682 -8.0625 24.6875 C-7.88847656 23.88699219 -7.71445313 23.08648437 -7.53515625 22.26171875 C-7 20 -7 20 -6 17 C-6.7425 16.7525 -7.485 16.505 -8.25 16.25 C-11 15 -11 15 -15 11 C-11.04 11 -7.08 11 -3 11 C-2.690625 9.55625 -2.38125 8.1125 -2.0625 6.625 C-1.54516353 4.21076314 -1.10514766 2.21029533 0 0 Z " fill="#F1F3F6" transform="translate(102,129)"/>
<path d="M0 0 C3.12259437 3.12259437 3.14293342 6.71466712 4 11 C7.96 11 11.92 11 16 11 C12 15 12 15 7 17 C8.485 22.94 8.485 22.94 10 29 C8.30729167 27.99088542 6.61458333 26.98177083 4.921875 25.97265625 C2.86963649 24.93402335 1.2929995 24.25079682 -1 24 C-2.9830506 24.95125951 -2.9830506 24.95125951 -4.75 26.4375 C-5.36359375 26.91058594 -5.9771875 27.38367188 -6.609375 27.87109375 C-7.29773438 28.42990234 -7.29773438 28.42990234 -8 29 C-9.40907283 26.18185434 -8.50872691 24.82722796 -7.5625 21.875 C-7.13130859 20.50988281 -7.13130859 20.50988281 -6.69140625 19.1171875 C-6.46324219 18.41851562 -6.23507812 17.71984375 -6 17 C-6.7425 16.7525 -7.485 16.505 -8.25 16.25 C-11 15 -11 15 -15 11 C-11.04 11 -7.08 11 -3 11 C-2.690625 9.55625 -2.38125 8.1125 -2.0625 6.625 C-1.54516353 4.21076314 -1.10514766 2.21029533 0 0 Z " fill="#F1F3F6" transform="translate(375,245)"/>
<path d="M0 0 C3.12259437 3.12259437 3.14293342 6.71466712 4 11 C7.96 11 11.92 11 16 11 C12 15 12 15 8 18 C8.66 21.63 9.32 25.26 10 29 C7.0703125 26.99804688 7.0703125 26.99804688 4.140625 24.99609375 C2.07211255 23.81069107 2.07211255 23.81069107 -0.1015625 24.21875 C-2.79147475 25.32570977 -4.75794289 27.17095341 -7 29 C-7.66 29 -8.32 29 -9 29 C-8.01 25.04 -7.02 21.08 -6 17 C-7.32 16.34 -8.64 15.68 -10 15 C-11.37086915 13.70529025 -12.71340837 12.37849103 -14 11 C-10.37 11 -6.74 11 -3 11 C-2.01 7.37 -1.02 3.74 0 0 Z " fill="#F1F3F6" transform="translate(170,245)"/>
<path d="M0 0 C3.12259437 3.12259437 3.14293342 6.71466712 4 11 C7.96 11 11.92 11 16 11 C12 15 12 15 7 17 C8.485 22.94 8.485 22.94 10 29 C8.39125 28.0409375 8.39125 28.0409375 6.75 27.0625 C3.08601267 24.77128027 3.08601267 24.77128027 -1 24 C-3.05279996 25.60118397 -5.05651499 27.26776336 -7 29 C-7.66 29 -8.32 29 -9 29 C-8.01 25.04 -7.02 21.08 -6 17 C-7.32 16.34 -8.64 15.68 -10 15 C-11.68889872 13.6949419 -13.3603279 12.36639342 -15 11 C-11.04 11 -7.08 11 -3 11 C-2.690625 9.55625 -2.38125 8.1125 -2.0625 6.625 C-1.54516353 4.21076314 -1.10514766 2.21029533 0 0 Z " fill="#F1F3F6" transform="translate(136,216)"/>
<path d="M0 0 C3.12259437 3.12259437 3.14293342 6.71466712 4 11 C7.96 11 11.92 11 16 11 C12 15 12 15 7 17 C8.485 22.94 8.485 22.94 10 29 C8.30729167 27.99088542 6.61458333 26.98177083 4.921875 25.97265625 C2.86963649 24.93402335 1.2929995 24.25079682 -1 24 C-2.9830506 24.95125951 -2.9830506 24.95125951 -4.75 26.4375 C-5.36359375 26.91058594 -5.9771875 27.38367188 -6.609375 27.87109375 C-7.29773438 28.42990234 -7.29773438 28.42990234 -8 29 C-9.40907283 26.18185434 -8.50872691 24.82722796 -7.5625 21.875 C-7.13130859 20.50988281 -7.13130859 20.50988281 -6.69140625 19.1171875 C-6.46324219 18.41851562 -6.23507812 17.71984375 -6 17 C-6.7425 16.7525 -7.485 16.505 -8.25 16.25 C-11 15 -11 15 -15 11 C-11.04 11 -7.08 11 -3 11 C-2.690625 9.55625 -2.38125 8.1125 -2.0625 6.625 C-1.54516353 4.21076314 -1.10514766 2.21029533 0 0 Z " fill="#F2F4F7" transform="translate(375,187)"/>
<path d="M0 0 C2.45823172 3.68734758 3.01242616 6.69699971 4 11 C7.63 11 11.26 11 15 11 C12.33333333 13.66666667 9.66666667 16.33333333 7 19 C7.99 22.3 8.98 25.6 10 29 C6 27 6 27 4 25.3125 C2.14575816 23.82042137 2.14575816 23.82042137 0.1875 24.0625 C-3.04281331 25.44691999 -5.98101912 27.20022294 -9 29 C-8.34 25.37 -7.68 21.74 -7 18 C-8.32 17.030625 -9.64 16.06125 -11 15.0625 C-12.35348244 14.06853634 -13.69243643 13.0536394 -15 12 C-15 11.67 -15 11.34 -15 11 C-11.04 11 -7.08 11 -3 11 C-2.87625 9.9275 -2.7525 8.855 -2.625 7.75 C-2.10356064 4.62136385 -1.59911746 2.66519576 0 0 Z " fill="#F2F4F6" transform="translate(307,245)"/>
<path d="M0 0 C2.45823172 3.68734758 3.01242616 6.69699971 4 11 C7.63 11 11.26 11 15 11 C10.375 15.875 10.375 15.875 7 17 C7.33 18.0725 7.66 19.145 8 20.25 C9 24 9 24 9 28 C6.08482708 26.92598892 4.22189824 26.22189824 2 24 C-2.06476236 24.30109351 -5.58868696 26.96633261 -9 29 C-8.34 25.37 -7.68 21.74 -7 18 C-8.32 17.030625 -9.64 16.06125 -11 15.0625 C-12.35348244 14.06853634 -13.69243643 13.0536394 -15 12 C-15 11.67 -15 11.34 -15 11 C-11.04 11 -7.08 11 -3 11 C-2.690625 9.370625 -2.38125 7.74125 -2.0625 6.0625 C-1.125 1.125 -1.125 1.125 0 0 Z " fill="#F1F3F6" transform="translate(68,216)"/>
<path d="M0 0 C0.66 0 1.32 0 2 0 C2.99 2.97 3.98 5.94 5 9 C10.445 9.495 10.445 9.495 16 10 C13.33333333 12.66666667 10.66666667 15.33333333 8 18 C8.99 21.3 9.98 24.6 11 28 C7 26 7 26 4.5625 24.25 C2.07498716 22.69645152 2.07498716 22.69645152 -0.5 23.625 C-3.04231135 25.02327124 -5.54334829 26.45581892 -8 28 C-7.49800802 24.27091669 -6.95792977 20.63852314 -6 17 C-6.86625 16.36771484 -6.86625 16.36771484 -7.75 15.72265625 C-8.4925 15.17480469 -9.235 14.62695312 -10 14.0625 C-11.11375 13.24458984 -11.11375 13.24458984 -12.25 12.41015625 C-12.8275 11.94480469 -13.405 11.47945312 -14 11 C-14 10.67 -14 10.34 -14 10 C-10.04 10 -6.08 10 -2 10 C-1.855625 8.906875 -1.71125 7.81375 -1.5625 6.6875 C-1 3 -1 3 0 0 Z " fill="#F1F3F6" transform="translate(272,217)"/>
<path d="M0 0 C3.12259437 3.12259437 3.14293342 6.71466712 4 11 C7.96 11 11.92 11 16 11 C12 15 12 15 8 18 C8.66 21.63 9.32 25.26 10 29 C7.0703125 26.99804688 7.0703125 26.99804688 4.140625 24.99609375 C2.07211255 23.81069107 2.07211255 23.81069107 -0.1015625 24.21875 C-2.79147475 25.32570977 -4.75794289 27.17095341 -7 29 C-7.66 29 -8.32 29 -9 29 C-8.01 25.04 -7.02 21.08 -6 17 C-7.32 16.34 -8.64 15.68 -10 15 C-11.37086915 13.70529025 -12.71340837 12.37849103 -14 11 C-10.37 11 -6.74 11 -3 11 C-2.01 7.37 -1.02 3.74 0 0 Z " fill="#F2F4F7" transform="translate(170,187)"/>
<path d="M0 0 C2.45823172 3.68734758 3.01242616 6.69699971 4 11 C7.63 11 11.26 11 15 11 C12.33333333 13.66666667 9.66666667 16.33333333 7 19 C7.99 22.3 8.98 25.6 10 29 C6 27 6 27 4 25.3125 C2.14575816 23.82042137 2.14575816 23.82042137 0.1875 24.0625 C-3.04281331 25.44691999 -5.98101912 27.20022294 -9 29 C-8.34 25.37 -7.68 21.74 -7 18 C-8.32 17.030625 -9.64 16.06125 -11 15.0625 C-12.35348244 14.06853634 -13.69243643 13.0536394 -15 12 C-15 11.67 -15 11.34 -15 11 C-11.04 11 -7.08 11 -3 11 C-2.87625 9.9275 -2.7525 8.855 -2.625 7.75 C-2.10356064 4.62136385 -1.59911746 2.66519576 0 0 Z " fill="#F2F4F7" transform="translate(307,187)"/>
<path d="M0 0 C3.12259437 3.12259437 3.14293342 6.71466712 4 11 C7.96 11 11.92 11 16 11 C12 15 12 15 7 17 C8.485 22.94 8.485 22.94 10 29 C8.30729167 27.99088542 6.61458333 26.98177083 4.921875 25.97265625 C2.86963649 24.93402335 1.2929995 24.25079682 -1 24 C-2.9830506 24.95125951 -2.9830506 24.95125951 -4.75 26.4375 C-5.36359375 26.91058594 -5.9771875 27.38367188 -6.609375 27.87109375 C-7.29773438 28.42990234 -7.29773438 28.42990234 -8 29 C-9.40907283 26.18185434 -8.50872691 24.82722796 -7.5625 21.875 C-7.13130859 20.50988281 -7.13130859 20.50988281 -6.69140625 19.1171875 C-6.46324219 18.41851562 -6.23507813 17.71984375 -6 17 C-6.90492188 16.57074219 -6.90492188 16.57074219 -7.828125 16.1328125 C-10.50868694 14.73467768 -12.68292061 12.93089949 -15 11 C-11.04 11 -7.08 11 -3 11 C-2.690625 9.55625 -2.38125 8.1125 -2.0625 6.625 C-1.54516353 4.21076314 -1.10514766 2.21029533 0 0 Z " fill="#F2F4F7" transform="translate(136,158)"/>
<path d="M0 0 C2.45823172 3.68734758 3.01242616 6.69699971 4 11 C7.63 11 11.26 11 15 11 C10.375 15.875 10.375 15.875 7 17 C7.33 18.0725 7.66 19.145 8 20.25 C9 24 9 24 9 28 C6.08482708 26.92598892 4.22189824 26.22189824 2 24 C-2.06476236 24.30109351 -5.58868696 26.96633261 -9 29 C-8.34 25.37 -7.68 21.74 -7 18 C-8.32 17.030625 -9.64 16.06125 -11 15.0625 C-12.35348244 14.06853634 -13.69243643 13.0536394 -15 12 C-15 11.67 -15 11.34 -15 11 C-11.04 11 -7.08 11 -3 11 C-2.690625 9.370625 -2.38125 7.74125 -2.0625 6.0625 C-1.125 1.125 -1.125 1.125 0 0 Z " fill="#F2F4F6" transform="translate(68,158)"/>
<path d="M0 0 C2 1 2 1 3.125 3.8125 C4 7 4 7 4 11 C7.96 11 11.92 11 16 11 C12 15 12 15 8 18 C8.66 21.63 9.32 25.26 10 29 C7.0703125 26.99804688 7.0703125 26.99804688 4.140625 24.99609375 C2.07327103 23.81108707 2.07327103 23.81108707 -0.09375 24.21875 C-2.80753685 25.33095773 -4.79190722 27.09858677 -7 29 C-7.66 28.67 -8.32 28.34 -9 28 C-8.67 26.9275 -8.34 25.855 -8 24.75 C-6.8282249 21.00268399 -6.8282249 21.00268399 -7 17 C-8.51534291 15.47141018 -8.51534291 15.47141018 -10.5 14.3125 C-11.67729696 13.55800215 -12.84704067 12.79118893 -14 12 C-14 11.67 -14 11.34 -14 11 C-10.37 11 -6.74 11 -3 11 C-2.01 7.37 -1.02 3.74 0 0 Z " fill="#F2F4F6" transform="translate(204,158)"/>
<path d="M0 0 C3.12259437 3.12259437 3.14293342 6.71466712 4 11 C7.96 11 11.92 11 16 11 C13.03368051 13.47193291 10.48763093 15.25618453 7 17 C8.485 22.94 8.485 22.94 10 29 C8.30729167 27.99088542 6.61458333 26.98177083 4.921875 25.97265625 C2.86963649 24.93402335 1.2929995 24.25079682 -1 24 C-2.9830506 24.95125951 -2.9830506 24.95125951 -4.75 26.4375 C-5.36359375 26.91058594 -5.9771875 27.38367188 -6.609375 27.87109375 C-7.29773438 28.42990234 -7.29773438 28.42990234 -8 29 C-9.40907283 26.18185434 -8.50872691 24.82722796 -7.5625 21.875 C-7.13130859 20.50988281 -7.13130859 20.50988281 -6.69140625 19.1171875 C-6.46324219 18.41851562 -6.23507812 17.71984375 -6 17 C-6.90492188 16.57074219 -6.90492188 16.57074219 -7.828125 16.1328125 C-10.50868694 14.73467768 -12.68292061 12.93089949 -15 11 C-11.04 11 -7.08 11 -3 11 C-2.690625 9.55625 -2.38125 8.1125 -2.0625 6.625 C-1.54516353 4.21076314 -1.10514766 2.21029533 0 0 Z " fill="#F2F4F6" transform="translate(375,129)"/>
<path d="M0 0 C0.66 0 1.32 0 2 0 C2.99 2.97 3.98 5.94 5 9 C10.445 9.495 10.445 9.495 16 10 C13.33333333 12.66666667 10.66666667 15.33333333 8 18 C8.350625 18.9075 8.70125 19.815 9.0625 20.75 C10.00170571 24.00591313 9.95514676 24.92749994 9 28 C8.55269531 27.61585938 8.10539062 27.23171875 7.64453125 26.8359375 C5.81217932 25.37474428 4.07280761 24.0968607 2 23 C-1.66494323 23.6818499 -4.13740358 25.66751403 -7 28 C-7.66 27.67 -8.32 27.34 -9 27 C-8.01 23.7 -7.02 20.4 -6 17 C-7.32 16.030625 -8.64 15.06125 -10 14.0625 C-11.35348244 13.06853634 -12.69243643 12.0536394 -14 11 C-14 10.67 -14 10.34 -14 10 C-8.555 9.505 -8.555 9.505 -3 9 C-2.01 6.03 -1.02 3.06 0 0 Z " fill="#F2F4F6" transform="translate(238,130)"/>
<path d="M0 0 C2.45823172 3.68734758 3.01242616 6.69699971 4 11 C7.63 11 11.26 11 15 11 C12.33333333 13.66666667 9.66666667 16.33333333 7 19 C7.99 22.3 8.98 25.6 10 29 C6 27 6 27 4.0625 25.3125 C2.07324419 23.77669455 2.07324419 23.77669455 -0.375 24.0625 C-3.64380227 25.22992938 -6.19399459 26.97706587 -9 29 C-8.34 25.37 -7.68 21.74 -7 18 C-8.32 17.030625 -9.64 16.06125 -11 15.0625 C-12.35348244 14.06853634 -13.69243643 13.0536394 -15 12 C-15 11.67 -15 11.34 -15 11 C-11.04 11 -7.08 11 -3 11 C-2.87625 9.9275 -2.7525 8.855 -2.625 7.75 C-2.10356064 4.62136385 -1.59911746 2.66519576 0 0 Z " fill="#F2F4F6" transform="translate(34,129)"/>
<path d="M0 0 C0.66 0 1.32 0 2 0 C2.99 3.3 3.98 6.6 5 10 C10.445 10.495 10.445 10.495 16 11 C13.33333333 13.66666667 10.66666667 16.33333333 8 19 C8.99 22.3 9.98 25.6 11 29 C7 27 7 27 5.0625 25.3125 C3.07324419 23.77669455 3.07324419 23.77669455 0.625 24.0625 C-2.64380227 25.22992938 -5.19399459 26.97706587 -8 29 C-7.49800802 25.27091669 -6.95792977 21.63852314 -6 18 C-6.86625 17.36771484 -6.86625 17.36771484 -7.75 16.72265625 C-8.4925 16.17480469 -9.235 15.62695312 -10 15.0625 C-11.11375 14.24458984 -11.11375 14.24458984 -12.25 13.41015625 C-12.8275 12.94480469 -13.405 12.47945312 -14 12 C-14 11.67 -14 11.34 -14 11 C-10.04 11 -6.08 11 -2 11 C-1.855625 9.9275 -1.71125 8.855 -1.5625 7.75 C-1.16250558 5.08337051 -0.72408076 2.58600271 0 0 Z " fill="#F1F3F6" transform="translate(272,100)"/>
<path d="M0 0 C0.66 0 1.32 0 2 0 C2.99 3.3 3.98 6.6 5 10 C10.445 10.495 10.445 10.495 16 11 C11 16 11 16 9.28125 17.375 C7.74413682 18.95242315 7.74413682 18.95242315 8.14453125 21.26171875 C8.36496094 22.06222656 8.58539063 22.86273438 8.8125 23.6875 C9.13154297 24.89986328 9.13154297 24.89986328 9.45703125 26.13671875 C9.72580078 27.05904297 9.72580078 27.05904297 10 28 C7.0280615 26.87548273 4.66559313 25.77706209 2 24 C-1.85358487 24.25690566 -4.1622086 26.55634629 -7 29 C-7.66 28.67 -8.32 28.34 -9 28 C-8.01 24.7 -7.02 21.4 -6 18 C-7.32 17.030625 -8.64 16.06125 -10 15.0625 C-11.35348244 14.06853634 -12.69243643 13.0536394 -14 12 C-14 11.67 -14 11.34 -14 11 C-8.555 10.505 -8.555 10.505 -3 10 C-2.01 6.7 -1.02 3.4 0 0 Z " fill="#F1F3F6" transform="translate(238,71)"/>
<path d="M0 0 C0.66 0 1.32 0 2 0 C3.31626692 3.61973402 4 6.09567131 4 10 C7.96 10 11.92 10 16 10 C13.42215154 12.64752004 11.08351902 14.94432065 8 17 C8.350625 18.0725 8.70125 19.145 9.0625 20.25 C9.94680186 23.78720743 10.02880551 24.74811124 9 28 C8.55269531 27.61585938 8.10539062 27.23171875 7.64453125 26.8359375 C5.81217932 25.37474428 4.07280761 24.0968607 2 23 C-1.66494323 23.6818499 -4.13740358 25.66751403 -7 28 C-7.66 27.67 -8.32 27.34 -9 27 C-8.01 23.7 -7.02 20.4 -6 17 C-7.32 16.030625 -8.64 15.06125 -10 14.0625 C-11.35348244 13.06853634 -12.69243643 12.0536394 -14 11 C-14 10.67 -14 10.34 -14 10 C-8.555 9.505 -8.555 9.505 -3 9 C-2.01 6.03 -1.02 3.06 0 0 Z " fill="#F2F4F6" transform="translate(238,246)"/>
<path d="M0 0 C0.66 0 1.32 0 2 0 C3.31626692 3.61973402 4 6.09567131 4 10 C7.96 10 11.92 10 16 10 C13.33333333 12.66666667 10.66666667 15.33333333 8 18 C8.350625 18.9075 8.70125 19.815 9.0625 20.75 C10.00170571 24.00591313 9.95514676 24.92749994 9 28 C8.55269531 27.61585938 8.10539062 27.23171875 7.64453125 26.8359375 C5.81217932 25.37474428 4.07280761 24.0968607 2 23 C-1.66494323 23.6818499 -4.13740358 25.66751403 -7 28 C-7.66 27.67 -8.32 27.34 -9 27 C-8.01 23.7 -7.02 20.4 -6 17 C-7.32 16.030625 -8.64 15.06125 -10 14.0625 C-11.35348244 13.06853634 -12.69243643 12.0536394 -14 11 C-14 10.67 -14 10.34 -14 10 C-8.555 9.505 -8.555 9.505 -3 9 C-2.01 6.03 -1.02 3.06 0 0 Z " fill="#F3F4F7" transform="translate(238,188)"/>
<path d="M0 0 C2.45823172 3.68734758 3.01242616 6.69699971 4 11 C7.63 11 11.26 11 15 11 C12.33333333 13.66666667 9.66666667 16.33333333 7 19 C7.99 22.3 8.98 25.6 10 29 C6 27 6 27 4.0625 25.3125 C2.07324419 23.77669455 2.07324419 23.77669455 -0.375 24.0625 C-3.64380227 25.22992938 -6.19399459 26.97706587 -9 29 C-8.34 25.37 -7.68 21.74 -7 18 C-8.32 17.030625 -9.64 16.06125 -11 15.0625 C-12.35348244 14.06853634 -13.69243643 13.0536394 -15 12 C-15 11.67 -15 11.34 -15 11 C-11.04 11 -7.08 11 -3 11 C-2.87625 9.9275 -2.7525 8.855 -2.625 7.75 C-2.10356064 4.62136385 -1.59911746 2.66519576 0 0 Z " fill="#F2F4F7" transform="translate(34,187)"/>
<path d="M0 0 C0.66 0 1.32 0 2 0 C2.99 2.97 3.98 5.94 5 9 C10.445 9.495 10.445 9.495 16 10 C13.33333333 12.66666667 10.66666667 15.33333333 8 18 C8.99 21.3 9.98 24.6 11 28 C7 26 7 26 5.0625 24.3125 C3.07324419 22.77669455 3.07324419 22.77669455 0.625 23.0625 C-2.64380227 24.22992938 -5.19399459 25.97706587 -8 28 C-7.49800802 24.27091669 -6.95792977 20.63852314 -6 17 C-6.86625 16.36771484 -6.86625 16.36771484 -7.75 15.72265625 C-8.4925 15.17480469 -9.235 14.62695312 -10 14.0625 C-11.11375 13.24458984 -11.11375 13.24458984 -12.25 12.41015625 C-12.8275 11.94480469 -13.405 11.47945312 -14 11 C-14 10.67 -14 10.34 -14 10 C-8.555 9.505 -8.555 9.505 -3 9 C-2.01 6.03 -1.02 3.06 0 0 Z " fill="#F2F4F7" transform="translate(272,159)"/>
<path d="M0 0 C2.45823172 3.68734758 3.01242616 6.69699971 4 11 C7.63 11 11.26 11 15 11 C12.33333333 13.66666667 9.66666667 16.33333333 7 19 C7.99 22.3 8.98 25.6 10 29 C6 27 6 27 4.0625 25.3125 C2.07324419 23.77669455 2.07324419 23.77669455 -0.375 24.0625 C-3.64380227 25.22992938 -6.19399459 26.97706587 -9 29 C-8.34 25.37 -7.68 21.74 -7 18 C-8.32 17.030625 -9.64 16.06125 -11 15.0625 C-12.35348244 14.06853634 -13.69243643 13.0536394 -15 12 C-15 11.67 -15 11.34 -15 11 C-11.04 11 -7.08 11 -3 11 C-2.87625 9.9275 -2.7525 8.855 -2.625 7.75 C-2.10356064 4.62136385 -1.59911746 2.66519576 0 0 Z " fill="#F2F4F7" transform="translate(307,129)"/>
<path d="M0 0 C2 1 2 1 3.125 3.8125 C4 7 4 7 4 11 C7.96 11 11.92 11 16 11 C12 15 12 15 8 18 C8.66 21.63 9.32 25.26 10 29 C7.0703125 26.99804688 7.0703125 26.99804688 4.140625 24.99609375 C2.07327103 23.81108707 2.07327103 23.81108707 -0.09375 24.21875 C-2.80753685 25.33095773 -4.79190722 27.09858677 -7 29 C-7.66 28.67 -8.32 28.34 -9 28 C-8.67 26.9275 -8.34 25.855 -8 24.75 C-6.8282249 21.00268399 -6.8282249 21.00268399 -7 17 C-8.51534291 15.47141018 -8.51534291 15.47141018 -10.5 14.3125 C-11.67729696 13.55800215 -12.84704067 12.79118893 -14 12 C-14 11.67 -14 11.34 -14 11 C-10.37 11 -6.74 11 -3 11 C-2.01 7.37 -1.02 3.74 0 0 Z " fill="#F2F4F6" transform="translate(204,100)"/>
<path d="M0 0 C2.45823172 3.68734758 3.01242616 6.69699971 4 11 C7.63 11 11.26 11 15 11 C12.33333333 13.66666667 9.66666667 16.33333333 7 19 C7.99 22.3 8.98 25.6 10 29 C6 27 6 27 4.0625 25.3125 C2.07324419 23.77669455 2.07324419 23.77669455 -0.375 24.0625 C-3.64380227 25.22992938 -6.19399459 26.97706587 -9 29 C-8.34 25.37 -7.68 21.74 -7 18 C-8.32 17.030625 -9.64 16.06125 -11 15.0625 C-12.35348244 14.06853634 -13.69243643 13.0536394 -15 12 C-15 11.67 -15 11.34 -15 11 C-11.04 11 -7.08 11 -3 11 C-2.87625 9.9275 -2.7525 8.855 -2.625 7.75 C-2.10356064 4.62136385 -1.59911746 2.66519576 0 0 Z " fill="#F2F4F6" transform="translate(34,71)"/>
<path d="M0 0 C0.66 0 1.32 0 2 0 C2.99 3.3 3.98 6.6 5 10 C10.445 10.495 10.445 10.495 16 11 C11 16 11 16 9.28125 17.375 C7.74413682 18.95242315 7.74413682 18.95242315 8.14453125 21.26171875 C8.36496094 22.06222656 8.58539063 22.86273438 8.8125 23.6875 C9.13154297 24.89986328 9.13154297 24.89986328 9.45703125 26.13671875 C9.72580078 27.05904297 9.72580078 27.05904297 10 28 C7.08482708 26.92598892 5.22189824 26.22189824 3 24 C-1.39629018 24.23763731 -3.77258856 26.14143559 -7 29 C-7.66 28.67 -8.32 28.34 -9 28 C-8.01 24.7 -7.02 21.4 -6 18 C-7.32 17.030625 -8.64 16.06125 -10 15.0625 C-11.35348244 14.06853634 -12.69243643 13.0536394 -14 12 C-14 11.67 -14 11.34 -14 11 C-8.555 10.505 -8.555 10.505 -3 10 C-2.01 6.7 -1.02 3.4 0 0 Z " fill="#F1F3F6" transform="translate(272,42)"/>
<path d="M0 0 C2 1 2 1 3.125 3.8125 C4 7 4 7 4 11 C7.96 11 11.92 11 16 11 C12.54602565 14.45397435 11.30872286 15.56375905 7 17 C7.34224609 17.92232422 7.34224609 17.92232422 7.69140625 18.86328125 C7.97886719 19.67152344 8.26632813 20.47976562 8.5625 21.3125 C8.85253906 22.11300781 9.14257812 22.91351563 9.44140625 23.73828125 C10 26 10 26 9 29 C8.54109375 28.62746094 8.0821875 28.25492188 7.609375 27.87109375 C6.99578125 27.39800781 6.3821875 26.92492187 5.75 26.4375 C5.14671875 25.96183594 4.5434375 25.48617187 3.921875 24.99609375 C2.05072641 23.80242829 2.05072641 23.80242829 -0.0703125 24.21875 C-2.7817339 25.31649146 -4.74553776 27.16083344 -7 29 C-7.66 29 -8.32 29 -9 29 C-8.47916667 27.046875 -7.95833333 25.09375 -7.4375 23.140625 C-6.86650651 20.71098139 -6.86650651 20.71098139 -7 17 C-8.51534291 15.47141018 -8.51534291 15.47141018 -10.5 14.3125 C-11.67729696 13.55800215 -12.84704067 12.79118893 -14 12 C-14 11.67 -14 11.34 -14 11 C-10.37 11 -6.74 11 -3 11 C-2.01 7.37 -1.02 3.74 0 0 Z " fill="#F1F3F6" transform="translate(204,42)"/>
<path d="M0 0 C2.45823172 3.68734758 3.01242616 6.69699971 4 11 C7.63 11 11.26 11 15 11 C10.375 15.875 10.375 15.875 7 17 C8.485 22.94 8.485 22.94 10 29 C6 27 6 27 4 25.3125 C2.14575816 23.82042137 2.14575816 23.82042137 0.1875 24.0625 C-3.04281331 25.44691999 -5.98101912 27.20022294 -9 29 C-8.68950274 27.56206608 -8.3765224 26.1246682 -8.0625 24.6875 C-7.88847656 23.88699219 -7.71445312 23.08648437 -7.53515625 22.26171875 C-7 20 -7 20 -6 17 C-6.7425 16.7525 -7.485 16.505 -8.25 16.25 C-11 15 -11 15 -15 11 C-11.04 11 -7.08 11 -3 11 C-2.690625 9.55625 -2.38125 8.1125 -2.0625 6.625 C-1.54516353 4.21076314 -1.10514766 2.21029533 0 0 Z " fill="#F3F5F7" transform="translate(341,158)"/>
<path d="M0 0 C3.12259437 3.12259437 3.14293342 6.71466712 4 11 C7.96 11 11.92 11 16 11 C12 15 12 15 8 18 C8.66 21.63 9.32 25.26 10 29 C7.0703125 26.99804688 7.0703125 26.99804688 4.140625 24.99609375 C2.07211255 23.81069107 2.07211255 23.81069107 -0.1015625 24.21875 C-2.79147475 25.32570977 -4.75794289 27.17095341 -7 29 C-7.66 29 -8.32 29 -9 29 C-8.47916667 27.046875 -7.95833333 25.09375 -7.4375 23.140625 C-6.86650651 20.71098139 -6.86650651 20.71098139 -7 17 C-8.51534291 15.47141018 -8.51534291 15.47141018 -10.5 14.3125 C-11.67729696 13.55800215 -12.84704067 12.79118893 -14 12 C-14 11.67 -14 11.34 -14 11 C-10.37 11 -6.74 11 -3 11 C-2.01 7.37 -1.02 3.74 0 0 Z " fill="#F3F5F7" transform="translate(170,129)"/>
<path d="M0 0 C2.45823172 3.68734758 3.01242616 6.69699971 4 11 C7.63 11 11.26 11 15 11 C10.375 15.875 10.375 15.875 7 17 C8.485 22.94 8.485 22.94 10 29 C6 27 6 27 4 25.3125 C2.14575816 23.82042137 2.14575816 23.82042137 0.1875 24.0625 C-3.04281331 25.44691999 -5.98101912 27.20022294 -9 29 C-8.68950274 27.56206608 -8.3765224 26.1246682 -8.0625 24.6875 C-7.88847656 23.88699219 -7.71445312 23.08648437 -7.53515625 22.26171875 C-7 20 -7 20 -6 17 C-6.7425 16.7525 -7.485 16.505 -8.25 16.25 C-11 15 -11 15 -15 11 C-11.04 11 -7.08 11 -3 11 C-2.690625 9.55625 -2.38125 8.1125 -2.0625 6.625 C-1.54516353 4.21076314 -1.10514766 2.21029533 0 0 Z " fill="#F3F4F7" transform="translate(341,100)"/>
<path d="M0 0 C3.12259437 3.12259437 3.14293342 6.71466712 4 11 C7.96 11 11.92 11 16 11 C12 15 12 15 7 17 C8.485 22.94 8.485 22.94 10 29 C7.0703125 26.99804688 7.0703125 26.99804688 4.140625 24.99609375 C2.08253063 23.81421329 2.08253063 23.81421329 -0.03125 24.21875 C-2.06037994 25.0239603 -3.87525677 25.94486461 -5.75 27.0625 C-6.8225 27.701875 -7.895 28.34125 -9 29 C-8.01 25.04 -7.02 21.08 -6 17 C-7.32 16.34 -8.64 15.68 -10 15 C-11.37086915 13.70529025 -12.71340837 12.37849103 -14 11 C-10.37 11 -6.74 11 -3 11 C-2.690625 9.55625 -2.38125 8.1125 -2.0625 6.625 C-1.54516353 4.21076314 -1.10514766 2.21029533 0 0 Z " fill="#F3F5F7" transform="translate(136,100)"/>
<path d="M0 0 C3.12259437 3.12259437 3.14293342 6.71466712 4 11 C7.63 11 11.26 11 15 11 C10.375 15.875 10.375 15.875 7 17 C8.485 22.94 8.485 22.94 10 29 C8.30729167 27.99088542 6.61458333 26.98177083 4.921875 25.97265625 C2.85934794 24.92881633 1.30549405 24.24828398 -1 24 C-3.20178308 24.95372349 -3.20178308 24.95372349 -5.25 26.4375 C-5.95640625 26.91058594 -6.6628125 27.38367188 -7.390625 27.87109375 C-8.18726562 28.42990234 -8.18726562 28.42990234 -9 29 C-8.68950274 27.56206608 -8.3765224 26.1246682 -8.0625 24.6875 C-7.88847656 23.88699219 -7.71445313 23.08648437 -7.53515625 22.26171875 C-7 20 -7 20 -6 17 C-6.5775 16.7525 -7.155 16.505 -7.75 16.25 C-10.3002997 14.83316683 -12.01785701 13.12372463 -14 11 C-10.37 11 -6.74 11 -3 11 C-2.690625 9.55625 -2.38125 8.1125 -2.0625 6.625 C-1.54516353 4.21076314 -1.10514766 2.21029533 0 0 Z " fill="#F2F4F7" transform="translate(102,71)"/>
<path d="M0 0 C2.45823172 3.68734758 3.01242616 6.69699971 4 11 C7.63 11 11.26 11 15 11 C12.33333333 13.66666667 9.66666667 16.33333333 7 19 C7.33 19.7425 7.66 20.485 8 21.25 C9 24 9 24 9 28 C6.08482708 26.92598892 4.22189824 26.22189824 2 24 C-2.50046315 24.25002573 -5.41788227 26.41754304 -9 29 C-8.34 25.37 -7.68 21.74 -7 18 C-8.32 17.030625 -9.64 16.06125 -11 15.0625 C-12.35348244 14.06853634 -13.69243643 13.0536394 -15 12 C-15 11.67 -15 11.34 -15 11 C-11.04 11 -7.08 11 -3 11 C-2.87625 9.9275 -2.7525 8.855 -2.625 7.75 C-2.10356064 4.62136385 -1.59911746 2.66519576 0 0 Z " fill="#F2F4F6" transform="translate(307,71)"/>
<path d="M0 0 C2.45823172 3.68734758 3.01242616 6.69699971 4 11 C7.63 11 11.26 11 15 11 C10.375 15.875 10.375 15.875 7 17 C8.485 22.94 8.485 22.94 10 29 C6 27 6 27 4.0625 25.3125 C2.07324419 23.77669455 2.07324419 23.77669455 -0.375 24.0625 C-3.64380227 25.22992938 -6.19399459 26.97706587 -9 29 C-8.68950274 27.56206608 -8.3765224 26.1246682 -8.0625 24.6875 C-7.88847656 23.88699219 -7.71445312 23.08648437 -7.53515625 22.26171875 C-7 20 -7 20 -6 17 C-6.7425 16.7525 -7.485 16.505 -8.25 16.25 C-11 15 -11 15 -15 11 C-11.04 11 -7.08 11 -3 11 C-2.690625 9.370625 -2.38125 7.74125 -2.0625 6.0625 C-1.125 1.125 -1.125 1.125 0 0 Z " fill="#F2F4F7" transform="translate(341,42)"/>
<path d="M0 0 C0.66 0.33 1.32 0.66 2 1 C2.91223868 4.29419525 3.40281175 7.63015202 4 11 C7.96 11 11.92 11 16 11 C12.54602565 14.45397435 11.30872286 15.56375905 7 17 C7.34224609 17.92232422 7.34224609 17.92232422 7.69140625 18.86328125 C7.97886719 19.67152344 8.26632813 20.47976562 8.5625 21.3125 C8.85253906 22.11300781 9.14257812 22.91351563 9.44140625 23.73828125 C10 26 10 26 9 29 C8.54109375 28.62746094 8.0821875 28.25492188 7.609375 27.87109375 C6.99578125 27.39800781 6.3821875 26.92492187 5.75 26.4375 C5.14671875 25.96183594 4.5434375 25.48617187 3.921875 24.99609375 C2.05072641 23.80242829 2.05072641 23.80242829 -0.0703125 24.21875 C-2.7817339 25.31649146 -4.74553776 27.16083344 -7 29 C-7.66 29 -8.32 29 -9 29 C-8.47916667 27.046875 -7.95833333 25.09375 -7.4375 23.140625 C-6.86650651 20.71098139 -6.86650651 20.71098139 -7 17 C-8.51534291 15.47141018 -8.51534291 15.47141018 -10.5 14.3125 C-11.67729696 13.55800215 -12.84704067 12.79118893 -14 12 C-14 11.67 -14 11.34 -14 11 C-10.37 11 -6.74 11 -3 11 C-2.01 7.37 -1.02 3.74 0 0 Z " fill="#F2F4F6" transform="translate(170,13)"/>
<path d="M0 0 C3.12259437 3.12259437 3.14293342 6.71466712 4 11 C7.63 11 11.26 11 15 11 C10.375 15.875 10.375 15.875 7 17 C8.485 22.94 8.485 22.94 10 29 C8.30729167 27.99088542 6.61458333 26.98177083 4.921875 25.97265625 C2.85934794 24.92881633 1.30549405 24.24828398 -1 24 C-3.20178308 24.95372349 -3.20178308 24.95372349 -5.25 26.4375 C-5.95640625 26.91058594 -6.6628125 27.38367188 -7.390625 27.87109375 C-8.18726562 28.42990234 -8.18726562 28.42990234 -9 29 C-8.68950274 27.56206608 -8.3765224 26.1246682 -8.0625 24.6875 C-7.88847656 23.88699219 -7.71445313 23.08648437 -7.53515625 22.26171875 C-7 20 -7 20 -6 17 C-6.5775 16.7525 -7.155 16.505 -7.75 16.25 C-10.3002997 14.83316683 -12.01785701 13.12372463 -14 11 C-10.37 11 -6.74 11 -3 11 C-2.690625 9.55625 -2.38125 8.1125 -2.0625 6.625 C-1.54516353 4.21076314 -1.10514766 2.21029533 0 0 Z " fill="#F2F4F6" transform="translate(102,13)"/>
<path d="M0 0 C2.45823172 3.68734758 3.01242616 6.69699971 4 11 C7.63 11 11.26 11 15 11 C10 16 10 16 8.28125 17.375 C6.74413682 18.95242315 6.74413682 18.95242315 7.14453125 21.26171875 C7.36496094 22.06222656 7.58539063 22.86273438 7.8125 23.6875 C8.13154297 24.89986328 8.13154297 24.89986328 8.45703125 26.13671875 C8.72580078 27.05904297 8.72580078 27.05904297 9 28 C6.08482708 26.92598892 4.22189824 26.22189824 2 24 C-2.50046315 24.25002573 -5.41788227 26.41754304 -9 29 C-8.49800802 25.27091669 -7.95792977 21.63852314 -7 18 C-7.86625 17.36771484 -7.86625 17.36771484 -8.75 16.72265625 C-9.4925 16.17480469 -10.235 15.62695312 -11 15.0625 C-12.11375 14.24458984 -12.11375 14.24458984 -13.25 13.41015625 C-13.8275 12.94480469 -14.405 12.47945312 -15 12 C-15 11.67 -15 11.34 -15 11 C-11.04 11 -7.08 11 -3 11 C-2.87625 9.9275 -2.7525 8.855 -2.625 7.75 C-2.10356064 4.62136385 -1.59911746 2.66519576 0 0 Z " fill="#F1F4F6" transform="translate(34,13)"/>
<path d="M0 0 C3.12259437 3.12259437 3.14293342 6.71466712 4 11 C7.63 11 11.26 11 15 11 C10.375 15.875 10.375 15.875 7 17 C8.485 22.94 8.485 22.94 10 29 C7.0703125 26.99804688 7.0703125 26.99804688 4.140625 24.99609375 C2.08253063 23.81421329 2.08253063 23.81421329 -0.03125 24.21875 C-2.06037994 25.0239603 -3.87525677 25.94486461 -5.75 27.0625 C-6.8225 27.701875 -7.895 28.34125 -9 29 C-8.01 25.04 -7.02 21.08 -6 17 C-7.32 16.34 -8.64 15.68 -10 15 C-11.37086915 13.70529025 -12.71340837 12.37849103 -14 11 C-10.37 11 -6.74 11 -3 11 C-2.690625 9.55625 -2.38125 8.1125 -2.0625 6.625 C-1.54516353 4.21076314 -1.10514766 2.21029533 0 0 Z " fill="#F3F5F7" transform="translate(375,71)"/>
<path d="M0 0 C3.12259437 3.12259437 3.14293342 6.71466712 4 11 C7.96 11 11.92 11 16 11 C13.03368051 13.47193291 10.48763093 15.25618453 7 17 C8.485 22.94 8.485 22.94 10 29 C7.0703125 26.99804688 7.0703125 26.99804688 4.140625 24.99609375 C2.08253063 23.81421329 2.08253063 23.81421329 -0.03125 24.21875 C-2.06037994 25.0239603 -3.87525677 25.94486461 -5.75 27.0625 C-6.8225 27.701875 -7.895 28.34125 -9 29 C-8.01 25.04 -7.02 21.08 -6 17 C-7.32 16.34 -8.64 15.68 -10 15 C-11.37086915 13.70529025 -12.71340837 12.37849103 -14 11 C-10.37 11 -6.74 11 -3 11 C-2.690625 9.55625 -2.38125 8.1125 -2.0625 6.625 C-1.54516353 4.21076314 -1.10514766 2.21029533 0 0 Z " fill="#F3F5F7" transform="translate(136,42)"/>
<path d="M0 0 C3.12259437 3.12259437 3.14293342 6.71466712 4 11 C7.63 11 11.26 11 15 11 C10.375 15.875 10.375 15.875 7 17 C8.485 22.94 8.485 22.94 10 29 C7.0703125 26.99804688 7.0703125 26.99804688 4.140625 24.99609375 C2.08253063 23.81421329 2.08253063 23.81421329 -0.03125 24.21875 C-2.06037994 25.0239603 -3.87525677 25.94486461 -5.75 27.0625 C-6.8225 27.701875 -7.895 28.34125 -9 29 C-8.68950274 27.56206608 -8.3765224 26.1246682 -8.0625 24.6875 C-7.88847656 23.88699219 -7.71445312 23.08648437 -7.53515625 22.26171875 C-7 20 -7 20 -6 17 C-6.5775 16.7525 -7.155 16.505 -7.75 16.25 C-10.3002997 14.83316683 -12.01785701 13.12372463 -14 11 C-10.37 11 -6.74 11 -3 11 C-2.690625 9.55625 -2.38125 8.1125 -2.0625 6.625 C-1.54516353 4.21076314 -1.10514766 2.21029533 0 0 Z " fill="#F2F4F7" transform="translate(375,13)"/>
<path d="M0 0 C0.66 0 1.32 0 2 0 C2.99 3.3 3.98 6.6 5 10 C10.445 10.495 10.445 10.495 16 11 C12 15 12 15 9.625 16.6875 C7.74254445 18.83920598 7.74254445 18.83920598 8.1953125 21.25390625 C8.70380354 23.54211594 9.29340006 25.76561641 10 28 C7.08482708 26.92598892 5.22189824 26.22189824 3 24 C-1.39629018 24.23763731 -3.77258856 26.14143559 -7 29 C-7.66 28.67 -8.32 28.34 -9 28 C-8.01 24.7 -7.02 21.4 -6 18 C-7.32 17.030625 -8.64 16.06125 -10 15.0625 C-11.35348244 14.06853634 -12.69243643 13.0536394 -14 12 C-14 11.67 -14 11.34 -14 11 C-8.555 10.505 -8.555 10.505 -3 10 C-2.01 6.7 -1.02 3.4 0 0 Z " fill="#F2F4F6" transform="translate(238,13)"/>
<path d="M0 0 C3.12259437 3.12259437 3.14293342 6.71466712 4 11 C7.96 11 11.92 11 16 11 C12.54602565 14.45397435 11.30872286 15.56375905 7 17 C7.34224609 17.92232422 7.34224609 17.92232422 7.69140625 18.86328125 C7.97886719 19.67152344 8.26632813 20.47976562 8.5625 21.3125 C8.85253906 22.11300781 9.14257812 22.91351563 9.44140625 23.73828125 C10 26 10 26 9 29 C8.54109375 28.62746094 8.0821875 28.25492188 7.609375 27.87109375 C6.99578125 27.39800781 6.3821875 26.92492187 5.75 26.4375 C5.14671875 25.96183594 4.5434375 25.48617187 3.921875 24.99609375 C2.05072641 23.80242829 2.05072641 23.80242829 -0.0703125 24.21875 C-2.7817339 25.31649146 -4.74553776 27.16083344 -7 29 C-7.66 29 -8.32 29 -9 29 C-8.47916667 27.046875 -7.95833333 25.09375 -7.4375 23.140625 C-6.86650651 20.71098139 -6.86650651 20.71098139 -7 17 C-8.51534291 15.47141018 -8.51534291 15.47141018 -10.5 14.3125 C-11.67729696 13.55800215 -12.84704067 12.79118893 -14 12 C-14 11.67 -14 11.34 -14 11 C-10.37 11 -6.74 11 -3 11 C-2.01 7.37 -1.02 3.74 0 0 Z " fill="#F3F5F7" transform="translate(170,71)"/>
<path d="M0 0 C2.45823172 3.68734758 3.01242616 6.69699971 4 11 C7.63 11 11.26 11 15 11 C10.25 15.875 10.25 15.875 8 17 C8.33 20.63 8.66 24.26 9 28 C5 26 5 26 2 24 C-2.50319149 24.24341576 -5.4132414 26.41419729 -9 29 C-8.68950274 27.56206608 -8.3765224 26.1246682 -8.0625 24.6875 C-7.88847656 23.88699219 -7.71445312 23.08648437 -7.53515625 22.26171875 C-7 20 -7 20 -6 17 C-6.7425 16.7525 -7.485 16.505 -8.25 16.25 C-11 15 -11 15 -15 11 C-11.04 11 -7.08 11 -3 11 C-2.87625 9.9275 -2.7525 8.855 -2.625 7.75 C-2.10356064 4.62136385 -1.59911746 2.66519576 0 0 Z " fill="#F3F4F7" transform="translate(68,42)"/>
<path d="M0 0 C2.45823172 3.68734758 3.01242616 6.69699971 4 11 C7.63 11 11.26 11 15 11 C12.33333333 13.66666667 9.66666667 16.33333333 7 19 C7.33 19.7425 7.66 20.485 8 21.25 C9 24 9 24 9 28 C6.50638429 26.79618552 4.31856917 25.54571278 2 24 C-2.50319149 24.24341576 -5.4132414 26.41419729 -9 29 C-8.68950274 27.56206608 -8.3765224 26.1246682 -8.0625 24.6875 C-7.88847656 23.88699219 -7.71445312 23.08648437 -7.53515625 22.26171875 C-7 20 -7 20 -6 17 C-6.7425 16.7525 -7.485 16.505 -8.25 16.25 C-11 15 -11 15 -15 11 C-11.04 11 -7.08 11 -3 11 C-2.87625 9.9275 -2.7525 8.855 -2.625 7.75 C-2.10356064 4.62136385 -1.59911746 2.66519576 0 0 Z " fill="#F3F5F7" transform="translate(68,100)"/>
<path d="M0 0 C2.45823172 3.68734758 3.01242616 6.69699971 4 11 C7.63 11 11.26 11 15 11 C12.33333333 13.66666667 9.66666667 16.33333333 7 19 C7.33 19.7425 7.66 20.485 8 21.25 C9 24 9 24 9 28 C6.50638429 26.79618552 4.31856917 25.54571278 2 24 C-2.50319149 24.24341576 -5.4132414 26.41419729 -9 29 C-8.68950274 27.56206608 -8.3765224 26.1246682 -8.0625 24.6875 C-7.88847656 23.88699219 -7.71445312 23.08648437 -7.53515625 22.26171875 C-7 20 -7 20 -6 17 C-6.7425 16.7525 -7.485 16.505 -8.25 16.25 C-11 15 -11 15 -15 11 C-11.04 11 -7.08 11 -3 11 C-2.87625 9.9275 -2.7525 8.855 -2.625 7.75 C-2.10356064 4.62136385 -1.59911746 2.66519576 0 0 Z " fill="#F3F5F7" transform="translate(307,13)"/>
</svg>
