<svg xmlns="http://www.w3.org/2000/svg" xmlns:xlink="http://www.w3.org/1999/xlink" viewBox="0,0,256,256" width="48px" height="48px" fill-rule="nonzero"><g transform="translate(-42.24,-42.24) scale(1.33,1.33)"><g fill="none" fill-rule="nonzero" stroke="none" stroke-width="1" stroke-linecap="butt" stroke-linejoin="miter" stroke-miterlimit="10" stroke-dasharray="" stroke-dashoffset="0" font-family="none" font-weight="none" font-size="none" text-anchor="none" style="mix-blend-mode: normal"><g transform="scale(5.33333,5.33333)"><path d="M40.93,15.56l-6.31,6.31l-0.41,-0.24l-1.54,-0.91l-3.31,-1.95l9.07,-9.08l1.67,3.92l0.51,1.2z" fill="#00b8d4"></path><path d="M30.051,10.652l-1.051,-1.652l-4,-2l-4,2l-6,-3l-9,4l2.875,16.672l15.75,-0.172z" fill="#00b8d4"></path><path d="M28.75,6.125l-8.75,8.875l6.729,2.217l9.947,-10.619z" fill="#ffea00"></path><path d="M37.125,6.625l-0.449,-0.027l-10.676,10.402l3.357,1.768l9.074,-9.074z" fill="#9ccc65"></path><path d="M42.12,18.38l-4.74,5.12l-2.76,-1.63l6.31,-6.31z" fill="#2979ff"></path><path d="M32,14l-7.012,11.441l7.075,10.167l10.057,-5.988z" fill="#00b8d4"></path><path d="M24.625,26.5l-15.75,0.172l2.125,12.328l20,3l1.06,-6.39l0.003,-0.002l-7.075,-10.167z" fill="#1e88e5"></path><rect x="13" y="13" width="22" height="22" fill="#090504"></rect><path d="M33,35l-7,4l-5,-4z" fill="#00b8d4"></path><rect x="15" y="31" width="8" height="2" fill="#ffffff"></rect><path d="M14.625,15.875h2l1.5,5.25l1.625,-5.25h1.5l1.5,5.125l1.25,-5.125h2.125l-2.5,9.125h-1.75l-1.625,-4.75l-1.375,4.625h-1.75z" fill="#ffffff"></path><path d="M31.75,18.25l1,-1.5c0,0 -1.193,-1.162 -3.625,-1.125c-2.158,0.033 -2.907,1.707 -2.875,2.625c0.028,0.79 0,2 2.875,2.875c0.799,0.243 1.298,0.496 1.603,0.734c0.496,0.387 0.286,1.2 -0.328,1.338c-0.734,0.165 -2.032,0.213 -3.275,-0.947l-1.25,1.5c0,0 1.875,1.5 4,1.375c2.125,-0.125 3.375,-1.625 3.25,-2.875c-0.125,-1.25 -0.875,-2 -2.5,-2.625c-1.625,-0.625 -2.451,-0.416 -2.425,-1.579c0.023,-1.029 1.8,-1.046 3.55,0.204z" fill="#ffffff"></path></g></g></g></svg>