<svg xmlns="http://www.w3.org/2000/svg" xmlns:xlink="http://www.w3.org/1999/xlink" viewBox="0,0,256,256" width="48px" height="48px" fill-rule="nonzero"><g transform="translate(-25.6,-25.6) scale(1.2,1.2)"><g fill="none" fill-rule="nonzero" stroke="none" stroke-width="1" stroke-linecap="butt" stroke-linejoin="miter" stroke-miterlimit="10" stroke-dasharray="" stroke-dashoffset="0" font-family="none" font-weight="none" font-size="none" text-anchor="none" style="mix-blend-mode: normal"><g transform="scale(5.33333,5.33333)"><rect x="3.993" y="4" width="39.007" height="40" fill="none"></rect><path d="M32.41,29.562l1.563,2.381l3.733,-2.515l5.294,-9.828l-3.802,-2.168z" fill="#d81b60"></path><path d="M36.388,15.83l-5.979,10.682l2.001,3.05l6.788,-12.13z" fill="#d81b60"></path><path d="M33.577,14.227l-5.168,9.235l2,3.05l5.979,-10.682z" fill="#dd3055"></path><path d="M30.766,12.625l-4.358,7.788l2.001,3.049l5.168,-9.235z" fill="#e2454a"></path><path d="M27.955,11.022l-3.548,6.341l2.001,3.05l4.358,-7.788z" fill="#e7593f"></path><path d="M25.144,9.419l-2.738,4.894l2.001,3.05l3.548,-6.341z" fill="#ec6e34"></path><path d="M22.333,7.817l-1.928,3.446l2.001,3.05l2.738,-4.894z" fill="#f08328"></path><path d="M19.522,6.214l-1.118,2l2.001,3.049l1.928,-3.446z" fill="#f5981d"></path><path d="M16.712,4.612l-0.309,0.552l2.001,3.05l1.118,-2z" fill="#faac12"></path><path d="M15.639,4l0.764,1.164l0.309,-0.552z" fill="#ffc107"></path><g><path d="M28.679,4.629l-0.958,0.967l1.172,-0.435z" fill="#304ffe"></path><path d="M28.893,5.161l-1.172,0.435l-4.532,4.579l6.72,-2.495z" fill="#304ffe"></path><path d="M29.909,7.68l-6.72,2.495l-2.089,2.111l0.166,1.5l9.658,-3.587z" fill="#4e41e3"></path><path d="M30.924,10.199l-9.658,3.587l0.307,2.782l10.366,-3.85z" fill="#6636ce"></path><path d="M32.134,13.2l-0.195,-0.482l-10.366,3.85l0.307,2.782l11.163,-4.146z" fill="#782ebe"></path><path d="M33.043,15.204l-11.163,4.146l0.307,2.782l11.981,-4.449z" fill="#8528b2"></path><path d="M34.168,17.683l-11.981,4.449l0.307,2.782l12.799,-4.753z" fill="#8c25ac"></path><path d="M35.293,20.161l-12.799,4.753l0.307,2.783l13.617,-5.057z" fill="#8e24aa"></path><path d="M36.418,22.64l-13.617,5.057l0.271,2.456l14.339,-5.325z" fill="#8e24aa"></path><path d="M37.411,24.828l-14.339,5.325l0.271,2.457l15.062,-5.593z" fill="#8827b0"></path><path d="M38.405,27.017l-15.062,5.593l0.271,2.457l15.784,-5.861z" fill="#7c2cba"></path><path d="M39.398,29.206l-15.784,5.861l0.271,2.457l16.506,-6.129z" fill="#6d33c7"></path><path d="M40.391,31.395l-16.506,6.129l0.272,2.457l17.228,-6.398z" fill="#5b3bd7"></path><path d="M41.385,33.583l-17.228,6.398l0.008,0.076l2.731,1.464l15.482,-5.749z" fill="#4745ea"></path><path d="M26.896,41.521l2.819,1.511l9.056,-3.363l4.229,-2.526l-0.622,-1.371z" fill="#304ffe"></path><path d="M31.521,44l7.25,-4.331l-9.056,3.363z" fill="#304ffe"></path></g><g><path d="M15.639,4l-11.646,8.057l1.321,8.359l17.756,-5.124z" fill="#d81b60"></path><path d="M23.07,15.292l-17.756,5.124l0.381,2.406l18.767,-5.416z" fill="#d81b60"></path><path d="M24.462,17.406l-18.767,5.416l0.38,2.406l19.778,-5.707z" fill="#dc2d56"></path><path d="M25.853,19.521l-19.778,5.707l0.381,2.406l20.789,-5.999z" fill="#e1404c"></path><path d="M27.245,21.635l-20.789,5.999l0.38,2.405l21.8,-6.29z" fill="#e55242"></path><path d="M28.636,23.749l-21.8,6.29l0.381,2.406l22.81,-6.582z" fill="#e96538"></path><path d="M30.027,25.863l-22.81,6.582l0.38,2.406l23.822,-6.874z" fill="#ee772f"></path><path d="M31.419,27.977l-23.822,6.874l0.381,2.406l24.832,-7.165z" fill="#f28a25"></path><path d="M7.978,37.257l0.361,2.286l0.184,0.072l24.926,-7.192l0.579,-0.48l-1.218,-1.851z" fill="#f69c1b"></path><path d="M12.216,41.066l16.571,-4.782l4.662,-3.861l-24.926,7.192z" fill="#fbaf11"></path><path d="M15.907,42.516l8.219,-2.371l4.661,-3.861l-16.571,4.782z" fill="#ffc107"></path><path d="M19.54,43.943l4.586,-3.798l-8.219,2.371z" fill="#ffc107"></path></g><path d="M36,36h-24v-24h24z" fill="#212121"></path><path d="M23.988,32.558h-8.998v-1.543h8.998z" fill="#ffffff"></path><path d="M23.989,24h3.386c2.786,0 4.75,-2.109 4.75,-4.617c0,-2.451 -1.895,-4.389 -4.681,-4.389h-3.455zM27.444,16.753c1.616,0 2.675,1.12 2.675,2.77c0,1.591 -1.114,2.711 -2.675,2.711l-1.417,0.003v-5.484z" fill="#ffffff"></path><path d="M14.962,23.986h2.006v-2.734h1.505l1.839,2.734h2.285l-2.173,-3.19c0.557,-0.228 1.003,-0.57 1.337,-1.025c0.334,-0.456 0.502,-1.025 0.502,-1.766v-0.057c0,-0.854 -0.223,-1.538 -0.724,-2.051c-0.613,-0.57 -1.449,-0.911 -2.563,-0.911h-4.012v9zM16.968,19.315v-2.563h1.895c0.502,0 0.836,0.171 1.114,0.342c0.279,0.228 0.39,0.513 0.39,0.968v0.057c0,0.342 -0.111,0.684 -0.39,0.911c-0.279,0.228 -0.656,0.285 -1.102,0.285z" fill="#ffffff"></path></g></g></g></svg>